<?xml version="1.0" encoding="utf-8"?>
<!-- Generator: Adobe Illustrator 26.0.3, SVG Export Plug-In . SVG Version: 6.00 Build 0)  -->
<svg version="1.1" xmlns="http://www.w3.org/2000/svg" xmlns:xlink="http://www.w3.org/1999/xlink" x="0px" y="0px"
	 viewBox="0 0 508.6 110" style="enable-background:new 0 0 508.6 110;" xml:space="preserve">
<style type="text/css">
	.st0{fill:#FFFFFF;}
	.st1{fill:#034EA2;}
	.st2{fill:#FBEE35;}
	.st3{display:none;}
</style>
<g id="Layer_1">
	<rect x="-0.2" y="1.7" class="st0" width="160.8" height="108.4"/>
	<g>
		<rect x="2.5" y="4.1" class="st1" width="155.4" height="103.6"/>
		<path class="st1" d="M80.2,55.9"/>
	</g>
	<g>
		<polygon class="st2" points="76.8,26.6 80.1,24.2 83.4,26.6 82.2,22.8 85.5,20.4 81.4,20.4 80.1,16.5 78.9,20.4 74.8,20.4 
			78.1,22.8 		"/>
		<polygon class="st2" points="59.9,31.2 63.2,28.8 66.4,31.2 65.2,27.3 68.5,24.9 64.4,24.9 63.2,21 61.9,24.9 57.8,24.9 
			61.1,27.3 		"/>
		<polygon class="st2" points="50.7,33.5 49.5,37.4 45.4,37.4 48.7,39.8 47.5,43.6 50.7,41.3 54,43.6 52.8,39.8 56.1,37.4 52,37.4 
					"/>
		<polygon class="st2" points="46.2,58.2 49.5,60.6 48.2,56.7 51.5,54.3 47.4,54.3 46.2,50.4 44.9,54.3 40.8,54.3 44.2,56.7 
			42.9,60.6 		"/>
		<polygon class="st2" points="52,71.3 50.7,67.4 49.5,71.3 45.4,71.3 48.7,73.7 47.5,77.6 50.7,75.2 54,77.6 52.8,73.7 56.1,71.3 
					"/>
		<polygon class="st2" points="64.4,83.8 63.2,79.9 61.9,83.8 57.8,83.8 61.2,86.2 59.9,90 63.2,87.6 66.5,90 65.2,86.2 68.5,83.8 
					"/>
		<polygon class="st2" points="81.4,88.3 80.1,84.4 78.9,88.3 74.8,88.3 78.1,90.7 76.9,94.5 80.1,92.1 83.4,94.5 82.2,90.7 
			85.5,88.3 		"/>
		<polygon class="st2" points="98.3,83.8 97.1,79.9 95.8,83.8 91.7,83.8 95,86.2 93.8,90 97.1,87.6 100.4,90 99.1,86.2 102.4,83.8 
					"/>
		<polygon class="st2" points="110.8,71.3 109.5,67.4 108.3,71.3 104.2,71.3 107.5,73.7 106.2,77.6 109.5,75.2 112.8,77.6 
			111.6,73.7 114.9,71.3 		"/>
		<polygon class="st2" points="119.4,54.3 115.3,54.3 114,50.4 112.8,54.3 108.7,54.3 112,56.7 110.7,60.5 114,58.2 117.3,60.5 
			116.1,56.7 		"/>
		<polygon class="st2" points="106.2,43.6 109.5,41.2 112.8,43.6 111.6,39.7 114.9,37.3 110.8,37.3 109.5,33.4 108.3,37.3 
			104.2,37.3 107.5,39.7 		"/>
		<polygon class="st2" points="97.1,21 95.9,24.9 91.8,24.9 95.1,27.3 93.8,31.2 97.1,28.8 100.4,31.2 99.2,27.3 102.5,24.9 
			98.4,24.9 		"/>
	</g>
	<g>
		<path class="st1" d="M180.2,47.8V22.6h17.3v4.3h-12.2v6h10.5v4.3h-10.5v10.7H180.2z"/>
		<path class="st1" d="M201.6,27.1v-4.5h4.8v4.5H201.6z M201.6,47.8V29.5h4.8v18.3H201.6z"/>
		<path class="st1" d="M228.1,47.8h-4.8v-9.3c0-2-0.1-3.3-0.3-3.8c-0.2-0.6-0.5-1-1-1.4c-0.5-0.3-1-0.5-1.7-0.5
			c-0.8,0-1.6,0.2-2.3,0.7c-0.7,0.5-1.1,1.1-1.4,1.8c-0.2,0.8-0.4,2.2-0.4,4.2v8.3h-4.8V29.5h4.5v2.7c1.6-2.1,3.6-3.1,6-3.1
			c1.1,0,2,0.2,2.9,0.6c0.9,0.4,1.6,0.9,2,1.5s0.8,1.3,0.9,2c0.2,0.8,0.3,1.8,0.3,3.3V47.8z"/>
		<path class="st1" d="M236.6,35.1l-4.4-0.8c0.5-1.8,1.3-3.1,2.5-3.9c1.2-0.8,3-1.3,5.4-1.3c2.2,0,3.8,0.3,4.8,0.8
			c1.1,0.5,1.8,1.2,2.2,1.9c0.4,0.8,0.6,2.2,0.6,4.3l-0.1,5.6c0,1.6,0.1,2.8,0.2,3.6c0.2,0.8,0.4,1.6,0.9,2.5h-4.8
			c-0.1-0.3-0.3-0.8-0.5-1.4c-0.1-0.3-0.1-0.5-0.2-0.6c-0.8,0.8-1.7,1.4-2.7,1.8c-0.9,0.4-1.9,0.6-3,0.6c-1.9,0-3.4-0.5-4.5-1.5
			c-1.1-1-1.6-2.3-1.6-3.9c0-1,0.2-2,0.7-2.8c0.5-0.8,1.2-1.4,2.1-1.9c0.9-0.4,2.2-0.8,3.8-1.1c2.3-0.4,3.8-0.8,4.7-1.2v-0.5
			c0-0.9-0.2-1.6-0.7-2c-0.5-0.4-1.3-0.6-2.6-0.6c-0.9,0-1.5,0.2-2,0.5C237.3,33.7,236.9,34.3,236.6,35.1z M243.1,39
			c-0.6,0.2-1.6,0.5-2.9,0.7c-1.3,0.3-2.2,0.6-2.6,0.8c-0.6,0.4-0.9,1-0.9,1.7c0,0.7,0.3,1.3,0.8,1.8c0.5,0.5,1.1,0.7,1.9,0.7
			c0.9,0,1.7-0.3,2.5-0.9c0.6-0.4,1-1,1.2-1.6c0.1-0.4,0.2-1.2,0.2-2.4V39z"/>
		<path class="st1" d="M269.2,47.8h-4.8v-9.3c0-2-0.1-3.3-0.3-3.8c-0.2-0.6-0.5-1-1-1.4c-0.5-0.3-1-0.5-1.7-0.5
			c-0.8,0-1.6,0.2-2.3,0.7c-0.7,0.5-1.1,1.1-1.4,1.8c-0.2,0.8-0.4,2.2-0.4,4.2v8.3h-4.8V29.5h4.5v2.7c1.6-2.1,3.6-3.1,6-3.1
			c1.1,0,2,0.2,2.9,0.6c0.9,0.4,1.6,0.9,2,1.5c0.5,0.6,0.8,1.3,0.9,2c0.2,0.8,0.3,1.8,0.3,3.3V47.8z"/>
		<path class="st1" d="M282.5,29.5v3.9h-3.3v7.4c0,1.5,0,2.4,0.1,2.6c0.1,0.2,0.2,0.5,0.4,0.6c0.2,0.2,0.5,0.2,0.8,0.2
			c0.4,0,1.1-0.2,1.9-0.5l0.4,3.8c-1.1,0.5-2.4,0.7-3.8,0.7c-0.9,0-1.7-0.1-2.4-0.4c-0.7-0.3-1.2-0.7-1.5-1.1
			c-0.3-0.5-0.6-1.1-0.7-1.9c-0.1-0.6-0.2-1.7-0.2-3.4v-8h-2.2v-3.9h2.2v-3.6l4.9-2.8v6.5H282.5z M276.1,49.8h5.1v1.5
			c0,1.3-0.1,2.4-0.4,3.1c-0.2,0.7-0.7,1.3-1.4,1.9c-0.7,0.6-1.6,1-2.8,1.3l-0.6-2.3c1.5-0.4,2.3-1.2,2.3-2.4h-2.3V49.8z"/>
		<path class="st1" d="M289.5,35.1l-4.4-0.8c0.5-1.8,1.3-3.1,2.5-3.9c1.2-0.8,3-1.3,5.4-1.3c2.2,0,3.8,0.3,4.8,0.8
			c1.1,0.5,1.8,1.2,2.2,1.9c0.4,0.8,0.6,2.2,0.6,4.3l-0.1,5.6c0,1.6,0.1,2.8,0.2,3.6c0.2,0.8,0.4,1.6,0.9,2.5H297
			c-0.1-0.3-0.3-0.8-0.5-1.4c-0.1-0.3-0.1-0.5-0.2-0.6c-0.8,0.8-1.7,1.4-2.7,1.8c-0.9,0.4-1.9,0.6-3,0.6c-1.9,0-3.4-0.5-4.4-1.5
			c-1.1-1-1.6-2.3-1.6-3.9c0-1,0.2-2,0.7-2.8c0.5-0.8,1.2-1.4,2.1-1.9c0.9-0.4,2.2-0.8,3.8-1.1c2.3-0.4,3.8-0.8,4.7-1.2v-0.5
			c0-0.9-0.2-1.6-0.7-2c-0.5-0.4-1.3-0.6-2.6-0.6c-0.9,0-1.5,0.2-2,0.5C290.2,33.7,289.8,34.3,289.5,35.1z M296,39
			c-0.6,0.2-1.6,0.5-2.9,0.7c-1.3,0.3-2.2,0.6-2.6,0.8c-0.6,0.4-0.9,1-0.9,1.7c0,0.7,0.3,1.3,0.8,1.8c0.5,0.5,1.1,0.7,1.9,0.7
			c0.9,0,1.7-0.3,2.5-0.9c0.6-0.4,1-1,1.2-1.6c0.1-0.4,0.2-1.2,0.2-2.4V39z"/>
		<path class="st1" d="M313.9,29.5v3.9h-3.3v7.4c0,1.5,0,2.4,0.1,2.6c0.1,0.2,0.2,0.5,0.4,0.6c0.2,0.2,0.5,0.2,0.8,0.2
			c0.4,0,1.1-0.2,1.9-0.5l0.4,3.8c-1.1,0.5-2.4,0.7-3.8,0.7c-0.9,0-1.7-0.1-2.4-0.4c-0.7-0.3-1.2-0.7-1.5-1.1
			c-0.3-0.5-0.6-1.1-0.7-1.9c-0.1-0.6-0.2-1.7-0.2-3.4v-8h-2.2v-3.9h2.2v-3.6l4.9-2.8v6.5H313.9z"/>
		<path class="st1" d="M343.8,47.8h-4.5v-2.7c-0.7,1-1.6,1.8-2.6,2.3c-1,0.5-2,0.8-3.1,0.8c-2.1,0-3.9-0.8-5.4-2.5
			c-1.5-1.7-2.2-4.1-2.2-7.1c0-3.1,0.7-5.5,2.2-7.1c1.5-1.6,3.3-2.4,5.5-2.4c2,0,3.8,0.8,5.3,2.5v-9.1h4.8V47.8z M330.9,38.3
			c0,2,0.3,3.4,0.8,4.2c0.8,1.3,1.9,1.9,3.3,1.9c1.1,0,2.1-0.5,2.8-1.4c0.8-0.9,1.2-2.4,1.2-4.2c0-2.1-0.4-3.6-1.1-4.5
			c-0.8-0.9-1.7-1.4-2.9-1.4c-1.1,0-2.1,0.5-2.9,1.4C331.3,35.1,330.9,36.5,330.9,38.3z"/>
		<path class="st1" d="M359.1,42l4.8,0.8c-0.6,1.8-1.6,3.1-2.9,4c-1.3,0.9-3,1.4-5,1.4c-3.2,0-5.5-1-7.1-3.1
			c-1.2-1.7-1.8-3.8-1.8-6.3c0-3,0.8-5.4,2.4-7.1c1.6-1.7,3.6-2.6,6-2.6c2.7,0,4.9,0.9,6.4,2.7c1.6,1.8,2.3,4.5,2.3,8.3h-12.1
			c0,1.4,0.4,2.6,1.2,3.3c0.7,0.8,1.7,1.2,2.8,1.2c0.8,0,1.4-0.2,1.9-0.6C358.5,43.6,358.9,42.9,359.1,42z M359.4,37.1
			c0-1.4-0.4-2.5-1.1-3.2c-0.7-0.7-1.5-1.1-2.5-1.1c-1.1,0-1.9,0.4-2.6,1.2c-0.7,0.8-1,1.8-1,3.1H359.4z"/>
		<path class="st1" d="M180.1,64.9h5.1v13.7c0,2.2,0.1,3.6,0.2,4.2c0.2,1,0.7,1.9,1.6,2.5c0.8,0.6,1.9,0.9,3.4,0.9
			c1.4,0,2.5-0.3,3.3-0.9c0.7-0.6,1.2-1.3,1.3-2.2c0.1-0.9,0.2-2.3,0.2-4.3v-14h5.1v13.3c0,3-0.1,5.2-0.4,6.4
			c-0.3,1.3-0.8,2.3-1.5,3.2c-0.7,0.9-1.7,1.5-3,2.1c-1.2,0.5-2.9,0.8-4.9,0.8c-2.4,0-4.2-0.3-5.5-0.8c-1.2-0.6-2.2-1.3-3-2.2
			c-0.7-0.9-1.2-1.8-1.4-2.8c-0.3-1.4-0.5-3.6-0.5-6.4V64.9z"/>
		<path class="st1" d="M222.2,90.1h-4.8v-9.3c0-2-0.1-3.3-0.3-3.8c-0.2-0.6-0.5-1-1-1.4c-0.5-0.3-1-0.5-1.7-0.5
			c-0.8,0-1.6,0.2-2.3,0.7c-0.7,0.5-1.1,1.1-1.4,1.8c-0.2,0.8-0.4,2.2-0.4,4.2v8.3h-4.8V71.8h4.5v2.7c1.6-2.1,3.6-3.1,6-3.1
			c1.1,0,2,0.2,2.9,0.6c0.9,0.4,1.6,0.9,2,1.5s0.8,1.3,0.9,2c0.2,0.8,0.3,1.8,0.3,3.3V90.1z"/>
		<path class="st1" d="M227.1,69.4v-4.5h4.8v4.5H227.1z M227.1,90.1V71.8h4.8v18.3H227.1z"/>
		<path class="st1" d="M248.9,90.1v-2.7c-0.7,1-1.5,1.7-2.6,2.3c-1.1,0.6-2.2,0.8-3.4,0.8c-1.2,0-2.3-0.3-3.3-0.8
			c-1-0.5-1.7-1.3-2.1-2.3c-0.4-1-0.7-2.3-0.7-4V71.8h4.8v8.4c0,2.6,0.1,4.1,0.3,4.7c0.2,0.6,0.5,1,1,1.4c0.5,0.3,1.1,0.5,1.8,0.5
			c0.8,0,1.6-0.2,2.2-0.7c0.7-0.5,1.1-1,1.3-1.7c0.2-0.7,0.4-2.3,0.4-4.9v-7.7h4.8v18.3H248.9z"/>
		<path class="st1" d="M275.1,90.1h-4.8v-9.3c0-2-0.1-3.3-0.3-3.8c-0.2-0.6-0.5-1-1-1.4c-0.5-0.3-1-0.5-1.7-0.5
			c-0.8,0-1.6,0.2-2.3,0.7c-0.7,0.5-1.1,1.1-1.4,1.8c-0.2,0.8-0.4,2.2-0.4,4.2v8.3h-4.8V71.8h4.5v2.7c1.6-2.1,3.6-3.1,6-3.1
			c1.1,0,2,0.2,2.9,0.6c0.9,0.4,1.6,0.9,2,1.5c0.5,0.6,0.8,1.3,0.9,2c0.2,0.8,0.3,1.8,0.3,3.3V90.1z"/>
		<path class="st1" d="M290.6,84.3l4.8,0.8c-0.6,1.8-1.6,3.1-2.9,4c-1.3,0.9-3,1.4-5,1.4c-3.2,0-5.5-1-7.1-3.1
			c-1.2-1.7-1.8-3.8-1.8-6.3c0-3,0.8-5.4,2.4-7.1c1.6-1.7,3.6-2.6,6-2.6c2.7,0,4.9,0.9,6.4,2.7c1.6,1.8,2.3,4.5,2.3,8.3h-12.1
			c0,1.4,0.4,2.6,1.2,3.3c0.7,0.8,1.7,1.2,2.8,1.2c0.8,0,1.4-0.2,1.9-0.6C289.9,85.9,290.3,85.2,290.6,84.3z M290.8,79.4
			c0-1.4-0.4-2.5-1.1-3.2c-0.7-0.7-1.5-1.1-2.5-1.1c-1.1,0-1.9,0.4-2.6,1.2s-1,1.8-1,3.1H290.8z"/>
		<path class="st1" d="M303.2,77.4l-4.4-0.8c0.5-1.8,1.3-3.1,2.5-3.9c1.2-0.8,3-1.3,5.4-1.3c2.2,0,3.8,0.3,4.8,0.8
			c1.1,0.5,1.8,1.2,2.2,1.9c0.4,0.8,0.6,2.2,0.6,4.3l-0.1,5.6c0,1.6,0.1,2.8,0.2,3.6c0.2,0.8,0.4,1.6,0.9,2.5h-4.8
			c-0.1-0.3-0.3-0.8-0.5-1.4c-0.1-0.3-0.1-0.5-0.2-0.6c-0.8,0.8-1.7,1.4-2.7,1.8c-0.9,0.4-1.9,0.6-3,0.6c-1.9,0-3.4-0.5-4.4-1.5
			c-1.1-1-1.6-2.3-1.6-3.9c0-1,0.2-2,0.7-2.8c0.5-0.8,1.2-1.4,2.1-1.9c0.9-0.4,2.2-0.8,3.8-1.1c2.3-0.4,3.8-0.8,4.7-1.2v-0.5
			c0-0.9-0.2-1.6-0.7-2c-0.5-0.4-1.3-0.6-2.6-0.6c-0.9,0-1.5,0.2-2,0.5C303.9,76,303.5,76.6,303.2,77.4z M309.7,81.3
			c-0.6,0.2-1.6,0.5-2.9,0.7c-1.3,0.3-2.2,0.6-2.6,0.8c-0.6,0.4-0.9,1-0.9,1.7c0,0.7,0.3,1.3,0.8,1.8c0.5,0.5,1.1,0.7,1.9,0.7
			c0.9,0,1.7-0.3,2.5-0.9c0.6-0.4,1-1,1.2-1.6c0.1-0.4,0.2-1.2,0.2-2.4V81.3z"/>
		<path class="st1" d="M329,90.1V64.9h18.7v4.3h-13.6v5.6h12.7V79h-12.7v6.9h14.1v4.3H329z"/>
		<path class="st1" d="M364.5,90.1v-2.7c-0.7,1-1.5,1.7-2.6,2.3c-1.1,0.6-2.2,0.8-3.4,0.8c-1.2,0-2.3-0.3-3.3-0.8
			c-1-0.5-1.7-1.3-2.1-2.3s-0.7-2.3-0.7-4V71.8h4.8v8.4c0,2.6,0.1,4.1,0.3,4.7c0.2,0.6,0.5,1,1,1.4c0.5,0.3,1.1,0.5,1.8,0.5
			c0.8,0,1.6-0.2,2.2-0.7c0.7-0.5,1.1-1,1.3-1.7c0.2-0.7,0.4-2.3,0.4-4.9v-7.7h4.8v18.3H364.5z"/>
		<path class="st1" d="M378.7,90.1h-4.8V71.8h4.5v2.6c0.8-1.2,1.5-2,2.1-2.4c0.6-0.4,1.3-0.6,2.1-0.6c1.1,0,2.2,0.3,3.2,0.9
			l-1.5,4.2c-0.8-0.5-1.6-0.8-2.3-0.8c-0.7,0-1.3,0.2-1.7,0.6c-0.5,0.4-0.8,1-1.1,2c-0.3,1-0.4,3-0.4,6.1V90.1z"/>
		<path class="st1" d="M386.6,80.7c0-1.6,0.4-3.2,1.2-4.7s1.9-2.7,3.4-3.4c1.5-0.8,3.1-1.2,4.9-1.2c2.8,0,5,0.9,6.8,2.7
			c1.8,1.8,2.7,4.1,2.7,6.8c0,2.8-0.9,5.1-2.7,6.9c-1.8,1.8-4,2.7-6.7,2.7c-1.7,0-3.3-0.4-4.8-1.1c-1.5-0.8-2.7-1.9-3.5-3.3
			C387,84.6,386.6,82.8,386.6,80.7z M391.6,81c0,1.8,0.4,3.2,1.3,4.2c0.9,1,1.9,1.4,3.2,1.4c1.3,0,2.3-0.5,3.2-1.4
			c0.9-1,1.3-2.4,1.3-4.2c0-1.8-0.4-3.2-1.3-4.1c-0.9-1-1.9-1.4-3.2-1.4c-1.3,0-2.3,0.5-3.2,1.4C392,77.8,391.6,79.2,391.6,81z"/>
		<path class="st1" d="M409.2,71.8h4.5v2.7c0.6-0.9,1.4-1.7,2.4-2.2c1-0.6,2.1-0.9,3.3-0.9c2.1,0,3.9,0.8,5.4,2.5
			c1.5,1.7,2.2,4,2.2,7c0,3.1-0.7,5.4-2.2,7.1c-1.5,1.7-3.3,2.5-5.4,2.5c-1,0-1.9-0.2-2.7-0.6c-0.8-0.4-1.7-1.1-2.6-2.1v9.2h-4.8
			V71.8z M414,80.7c0,2.1,0.4,3.6,1.2,4.6c0.8,1,1.8,1.5,3,1.5c1.1,0,2.1-0.5,2.8-1.4c0.7-0.9,1.1-2.4,1.1-4.4
			c0-1.9-0.4-3.3-1.2-4.3c-0.8-0.9-1.7-1.4-2.9-1.4c-1.2,0-2.2,0.5-2.9,1.4C414.3,77.5,414,78.9,414,80.7z"/>
		<path class="st1" d="M441.4,84.3l4.8,0.8c-0.6,1.8-1.6,3.1-2.9,4c-1.3,0.9-3,1.4-5,1.4c-3.2,0-5.5-1-7.1-3.1
			c-1.2-1.7-1.8-3.8-1.8-6.3c0-3,0.8-5.4,2.4-7.1c1.6-1.7,3.6-2.6,6-2.6c2.7,0,4.9,0.9,6.4,2.7c1.6,1.8,2.3,4.5,2.3,8.3h-12.1
			c0,1.4,0.4,2.6,1.2,3.3c0.7,0.8,1.7,1.2,2.8,1.2c0.8,0,1.4-0.2,1.9-0.6C440.8,85.9,441.2,85.2,441.4,84.3z M441.7,79.4
			c0-1.4-0.4-2.5-1.1-3.2c-0.7-0.7-1.5-1.1-2.5-1.1c-1.1,0-1.9,0.4-2.6,1.2c-0.7,0.8-1,1.8-1,3.1H441.7z"/>
		<path class="st1" d="M454.1,77.4l-4.4-0.8c0.5-1.8,1.3-3.1,2.5-3.9c1.2-0.8,3-1.3,5.4-1.3c2.2,0,3.8,0.3,4.8,0.8
			c1.1,0.5,1.8,1.2,2.2,1.9c0.4,0.8,0.6,2.2,0.6,4.3l-0.1,5.6c0,1.6,0.1,2.8,0.2,3.6c0.2,0.8,0.4,1.6,0.9,2.5h-4.8
			c-0.1-0.3-0.3-0.8-0.5-1.4c-0.1-0.3-0.1-0.5-0.2-0.6c-0.8,0.8-1.7,1.4-2.7,1.8c-0.9,0.4-1.9,0.6-3,0.6c-1.9,0-3.4-0.5-4.4-1.5
			c-1.1-1-1.6-2.3-1.6-3.9c0-1,0.2-2,0.7-2.8c0.5-0.8,1.2-1.4,2.1-1.9c0.9-0.4,2.2-0.8,3.8-1.1c2.3-0.4,3.8-0.8,4.7-1.2v-0.5
			c0-0.9-0.2-1.6-0.7-2c-0.5-0.4-1.3-0.6-2.6-0.6c-0.9,0-1.5,0.2-2,0.5C454.8,76,454.4,76.6,454.1,77.4z M460.5,81.3
			c-0.6,0.2-1.6,0.5-2.9,0.7c-1.3,0.3-2.2,0.6-2.6,0.8c-0.6,0.4-0.9,1-0.9,1.7c0,0.7,0.3,1.3,0.8,1.8c0.5,0.5,1.1,0.7,1.9,0.7
			c0.9,0,1.7-0.3,2.5-0.9c0.6-0.4,1-1,1.2-1.6c0.1-0.4,0.2-1.2,0.2-2.4V81.3z"/>
		<path class="st1" d="M486.7,90.1h-4.8v-9.3c0-2-0.1-3.3-0.3-3.8c-0.2-0.6-0.5-1-1-1.4c-0.5-0.3-1-0.5-1.7-0.5
			c-0.8,0-1.6,0.2-2.3,0.7c-0.7,0.5-1.1,1.1-1.4,1.8c-0.2,0.8-0.4,2.2-0.4,4.2v8.3H470V71.8h4.5v2.7c1.6-2.1,3.6-3.1,6-3.1
			c1.1,0,2,0.2,2.9,0.6c0.9,0.4,1.6,0.9,2,1.5c0.5,0.6,0.8,1.3,0.9,2c0.2,0.8,0.3,1.8,0.3,3.3V90.1z"/>
		<path class="st1" d="M495.2,77.4l-4.4-0.8c0.5-1.8,1.3-3.1,2.5-3.9c1.2-0.8,3-1.3,5.4-1.3c2.2,0,3.8,0.3,4.8,0.8
			c1.1,0.5,1.8,1.2,2.2,1.9c0.4,0.8,0.6,2.2,0.6,4.3l-0.1,5.6c0,1.6,0.1,2.8,0.2,3.6c0.2,0.8,0.4,1.6,0.9,2.5h-4.8
			c-0.1-0.3-0.3-0.8-0.5-1.4c-0.1-0.3-0.1-0.5-0.2-0.6c-0.8,0.8-1.7,1.4-2.7,1.8c-0.9,0.4-1.9,0.6-3,0.6c-1.9,0-3.4-0.5-4.4-1.5
			c-1.1-1-1.6-2.3-1.6-3.9c0-1,0.2-2,0.7-2.8c0.5-0.8,1.2-1.4,2.1-1.9c0.9-0.4,2.2-0.8,3.8-1.1c2.3-0.4,3.8-0.8,4.7-1.2v-0.5
			c0-0.9-0.2-1.6-0.7-2c-0.5-0.4-1.3-0.6-2.6-0.6c-0.9,0-1.5,0.2-2,0.5C495.9,76,495.5,76.6,495.2,77.4z M501.9,64.5h2.4
			c-0.1,1.6-0.7,2.8-1.6,3.7c-1,0.9-2.2,1.3-3.7,1.3s-2.8-0.4-3.7-1.3c-1-0.9-1.5-2.1-1.6-3.7h2.4c0.1,0.8,0.4,1.4,0.9,1.9
			c0.5,0.4,1.2,0.6,2.2,0.6s1.7-0.2,2.2-0.6C501.5,65.9,501.8,65.3,501.9,64.5z M501.7,81.3c-0.6,0.2-1.6,0.5-2.9,0.7
			c-1.3,0.3-2.2,0.6-2.6,0.8c-0.6,0.4-0.9,1-0.9,1.7c0,0.7,0.3,1.3,0.8,1.8c0.5,0.5,1.1,0.7,1.9,0.7c0.9,0,1.7-0.3,2.5-0.9
			c0.6-0.4,1-1,1.2-1.6c0.1-0.4,0.2-1.2,0.2-2.4V81.3z"/>
	</g>
</g>
<g id="Layer_2" class="st3">
</g>
</svg>
