<?xml version="1.0" encoding="utf-8"?>
<!-- Generator: Adobe Illustrator 26.0.3, SVG Export Plug-In . SVG Version: 6.00 Build 0)  -->
<svg version="1.1" id="Layer_1" xmlns="http://www.w3.org/2000/svg" xmlns:xlink="http://www.w3.org/1999/xlink" x="0px" y="0px"
	 viewBox="0 0 390.6 134.2" style="enable-background:new 0 0 390.6 134.2;" xml:space="preserve">
<style type="text/css">
	.st0{fill:#005B97;}
	.st1{fill:#FFD600;}
	.st2{fill:#32B44A;}
</style>
<g>
	<path class="st0" d="M187.1,26.9c-3.2-1.3-5.7-3.2-5.7-7.4c0-5.4,4.2-8.6,9.4-8.6c5.3,0,8.8,3.4,8.9,8.9l-4.1,1
		c-0.4-3.8-2.2-5.6-4.9-5.6c-2.4,0-4.6,1.3-4.6,3.8s2.3,3.5,4.1,4.2l4.3,1.7c3.7,1.5,6.3,3.5,6.3,7.8c0,5.6-4.4,8.7-9.9,8.7
		c-5.9,0-10.3-3.6-10.3-9.7l4.1-0.8c0.5,3.9,2.4,6.2,6.1,6.2c2.6,0,5.3-1.1,5.3-4c0-2.7-2.3-3.5-4.8-4.5L187.1,26.9z"/>
	<path class="st0" d="M216,41.1l-0.1-1.6c-1.7,1.1-3.4,1.8-5.2,1.8c-3.5,0-7.6-2.3-7.6-8.9V19.8h4.5v12.3c0,4.2,2.1,5.1,3.7,5.1
		c1.8,0,4-1.1,4.5-4.5V19.8h4.4v21.3H216z"/>
	<path class="st0" d="M227.3,31.9c0.5,4.4,2.9,5.3,4.9,5.3c2,0,3.7-0.8,5-2.7l3.9,1c-1.1,3.6-4.4,5.9-8.8,5.9
		c-4.9,0-9.6-2.9-9.6-10.9c0-8.1,4.8-11,9.5-11c4.7,0,9.5,2.9,9.5,10.9v1.4H227.3z M237,28.3c-0.6-3.8-2.9-4.6-4.6-4.6
		c-2.1,0-4.2,1.1-5,4.6H237z"/>
	<path class="st0" d="M258.4,41.1l-0.1-1.6c-1.8,1.3-3.3,1.9-5.2,1.9c-4.5,0-9.3-2.9-9.3-10.9c0-8,4.9-10.9,9.3-10.9
		c1.8,0,3.3,0.5,5.1,1.7V11.2h4.4v30H258.4z M258.1,29c-0.6-4-2.9-5.3-5-5.3c-2.1,0-4.8,1.2-4.8,6.7c0,5.6,2.7,6.7,4.8,6.7
		c2.1,0,4.3-1,5.1-4.5V29z"/>
	<path class="st0" d="M265.1,41.1v-4.1h4.3V23.9h-4.3v-4.1h8.7v17.3h4.3v4.1H265.1z M271.5,17.1c-1.7,0-2.9-1.3-2.9-2.9
		c0-1.6,1.3-2.9,2.9-2.9c1.6,0,3,1.3,3,2.9C274.5,15.8,273.2,17.1,271.5,17.1z"/>
	<path class="st0" d="M292.3,41.1l-0.1-1.6c-1.7,1.2-3.6,1.8-5.5,1.8c-4,0-7.4-2-7.4-6.3c0-4.2,3.1-6.4,7.6-6.6l5.1-0.3v-0.6
		c0-2.4-1.3-3.7-3.8-3.7c-1.7,0-3.2,0.6-4.4,1.9l-3.6-1.1c1-3,4.2-5.1,8.2-5.1c5,0,8,3.2,8,7.5v14.1H292.3z M292.1,31.7l-5.1,0.3
		c-2.2,0.2-3.2,1.1-3.2,2.9c0,1.1,0.4,2.3,3.3,2.3c1.6,0,3.4-0.3,5-2.1V31.7z"/>
</g>
<g>
	<path class="st0" d="M190.2,87.8c-5.3-2.1-9.4-5.3-9.4-12c0-8.8,6.8-14,15.3-14c8.7,0,14.4,5.5,14.6,14.6l-6.7,1.6
		c-0.7-6.3-3.6-9.1-8-9.1c-3.9,0-7.6,2.1-7.6,6.3c0,4.1,3.7,5.6,6.7,6.8l6.9,2.8c6.1,2.4,10.3,5.7,10.3,12.7
		c0,9.1-7.2,14.2-16.2,14.2c-9.7,0-16.8-5.9-16.9-15.8l6.7-1.4c0.8,6.3,3.9,10.1,10,10.1c4.2,0,8.6-1.8,8.6-6.6
		c0-4.5-3.8-5.8-7.8-7.4L190.2,87.8z"/>
	<path class="st0" d="M252.7,96c0.8,7.2,4.8,8.6,8,8.6c3.2,0,6.1-1.4,8.1-4.3l6.3,1.7c-1.9,5.8-7.2,9.6-14.3,9.6
		c-8,0-15.7-4.7-15.7-17.7c0-13.2,7.9-18,15.5-18c7.6,0,15.5,4.7,15.5,17.9V96H252.7z M268.5,90.2c-1-6.3-4.7-7.5-7.6-7.5
		c-3.4,0-6.9,1.8-8.1,7.5H268.5z"/>
	<path class="st0" d="M302.3,111.1v-6.7h7V82.9h-7v-6.7h14.2v28.2h7v6.7H302.3z M312.8,71.8c-2.7,0-4.8-2.3-4.8-5.1
		c0-2.9,2.1-5.2,4.8-5.2c2.8,0,5,2.3,5,5.2C317.8,69.5,315.6,71.8,312.8,71.8z"/>
	<path class="st0" d="M348.1,108.1c-3.2,2.8-5.9,3.4-8.5,3.4c-6.9,0-15.1-4.7-15.1-17.9c0-13.1,8.1-17.8,15-17.8
		c3.1,0,5.6,1,8.7,3.6l0.2-3.2h6.9v34.9c0,8.3-5.9,14.5-15.2,14.5c-7.2,0-12.4-3.6-14.2-9.6l6.3-1.6c2,3,4.9,4.3,8.1,4.3
		c4.9,0,7.6-3,7.6-7.6V108.1z M348.1,91.3c-0.9-6.1-4.4-8.6-8.3-8.6c-3.4,0-7.8,1.9-7.8,11c0,9,4.3,10.9,7.9,10.9
		c3.3,0,7.3-1.6,8.2-7.2V91.3z"/>
	<path class="st0" d="M367.4,96c0.8,7.2,4.8,8.6,8,8.6c3.2,0,6.1-1.4,8.1-4.3l6.3,1.7c-1.9,5.8-7.2,9.6-14.3,9.6
		c-8,0-15.8-4.7-15.8-17.7c0-13.2,7.9-18,15.5-18c7.6,0,15.5,4.7,15.5,17.9V96H367.4z M383.2,90.2c-1-6.3-4.7-7.5-7.6-7.5
		c-3.4,0-6.9,1.8-8.1,7.5H383.2z"/>
	<path class="st0" d="M299.3,76.3c-1.3-0.3-2.6-0.5-3.4-0.5c-2.8,0-5.7,1.8-8.3,4.4l-0.3-4h-6.8v34.9h7.3V91c1-5.6,4.3-7.4,7.4-7.4
		c1,0,2.3,0.2,4.1,0.6V76.3z"/>
	<path class="st0" d="M225.6,111.1l-12.4-34.9h7.6l8.4,24.8l8.4-24.8h7.5l-12.4,34.9H225.6z"/>
</g>
<g>
	<polygon class="st1" points="70.9,11.8 51,11.8 51,51.7 1,51.7 1,71.7 51,71.7 51,111.7 70.9,111.7 70.9,71.7 160.9,71.7 
		160.9,51.7 70.9,51.7 	"/>
	<rect x="1" y="11.8" class="st0" width="50" height="40"/>
	<rect x="70.9" y="11.8" class="st0" width="89.9" height="40"/>
	<rect x="1" y="71.7" class="st0" width="50" height="40"/>
	<rect x="70.9" y="71.7" class="st0" width="89.9" height="40"/>
</g>
<g>
	<path class="st2" d="M51.4,11.2"/>
</g>
</svg>
