<?xml version="1.0" encoding="utf-8"?>
<!-- Generator: Adobe Illustrator 26.0.3, SVG Export Plug-In . SVG Version: 6.00 Build 0)  -->
<svg version="1.1" id="Layer_1" xmlns="http://www.w3.org/2000/svg" xmlns:xlink="http://www.w3.org/1999/xlink" x="0px" y="0px"
	 viewBox="0 0 247.5 153.2" style="enable-background:new 0 0 247.5 153.2;" xml:space="preserve">
<style type="text/css">
	.Arched_x0020_Green{fill:url(#SVGID_1_);stroke:#FFFFFF;stroke-width:0.25;stroke-miterlimit:1;}
	.st0{fill:#F47B20;}
	.st1{fill:#008FC5;}
	.st2{fill:#EC098D;}
	.st3{fill:#54B948;}
</style>
<linearGradient id="SVGID_1_" gradientUnits="userSpaceOnUse" x1="-173.8936" y1="497.5571" x2="-173.1865" y2="496.85">
	<stop  offset="0" style="stop-color:#20AC4B"/>
	<stop  offset="0.9831" style="stop-color:#19361A"/>
</linearGradient>
<g>
	<g>
		<g>
			<path d="M49.1,96.8h3.6l4.4,12h-3.8l-0.5-1.7H49l-0.5,1.7h-3.7L49.1,96.8z M52,104.4l-1.1-3.7h0l-1.2,3.7H52z"/>
			<path d="M60.8,104.7c0,0.3,0,0.6,0.1,0.8c0.3,0.7,1.1,0.9,1.8,0.9c0.6,0,1.5-0.2,1.5-1.1c0-0.6-0.5-0.8-2.6-1.4
				c-1.9-0.5-4.1-1.1-4.1-3.5c0-2.8,2.4-4,4.8-4c2.6,0,4.9,1,5,3.9H64c0.1-0.5-0.1-0.8-0.4-1c-0.3-0.2-0.7-0.3-1.1-0.3
				c-0.5,0-1.3,0.1-1.3,0.8c0.1,0.8,1.8,1.1,3.5,1.5c1.7,0.5,3.4,1.2,3.4,3.5c0,3.1-2.8,4.1-5.5,4.1c-1.3,0-5.3-0.5-5.3-4.3H60.8z"
				/>
			<path d="M74.8,96.5c3.6,0,6.1,2.6,6.1,6.3c0,3.6-2.4,6.3-6.1,6.3c-3.6,0-6.1-2.6-6.1-6.3C68.7,99.1,71.2,96.5,74.8,96.5z
				 M74.8,106c0.9,0,2.4-0.6,2.4-3.3c0-2.7-1.4-3.3-2.4-3.3c-0.9,0-2.4,0.6-2.4,3.3C72.4,105.4,73.9,106,74.8,106z"/>
			<path d="M89.9,101.2c-0.1-0.4-0.4-1.8-1.9-1.8c-1.7,0-2.3,1.7-2.3,3.3c0,1.6,0.6,3.3,2.3,3.3c1.2,0,1.7-0.9,1.9-2h3.6
				c0,2.4-2,5-5.5,5c-3.9,0-6.1-2.7-6.1-6.3c0-3.8,2.4-6.3,6.1-6.3c3.3,0,5.1,1.7,5.4,4.7H89.9z"/>
			<path d="M95.1,96.8h3.7v12h-3.7V96.8z"/>
			<path d="M104,96.8h3.6l4.4,12h-3.8l-0.5-1.7h-3.8l-0.5,1.7h-3.7L104,96.8z M106.9,104.4l-1.1-3.7h0l-1.2,3.7H106.9z"/>
			<path d="M114.4,99.8h-3.4v-3.1h10.4v3.1h-3.4v8.9h-3.7V99.8z M114.8,109.5h2.8v1.2c0,0.7-0.2,1.2-0.8,1.5
				c-0.5,0.3-1.2,0.3-1.8,0.3v-0.7c0.7-0.1,0.9-0.3,1-0.6h-1.3V109.5z"/>
			<path d="M122.8,96.8h3.7v12h-3.7V96.8z"/>
			<path d="M131.7,96.8h3.6l4.4,12h-3.8l-0.5-1.7h-3.8l-0.5,1.7h-3.7L131.7,96.8z M134.6,104.4l-1.1-3.7h0l-1.2,3.7H134.6z"/>
			<path d="M146.1,96.8h3.8l3.5,6.4h0v-6.4h3.5v12h-3.6l-3.7-6.5h0v6.5h-3.5V96.8z"/>
			<path d="M162.1,96.8h3.6l4.4,12h-3.8l-0.5-1.7h-3.8l-0.5,1.7h-3.7L162.1,96.8z M165,104.4l-1.1-3.7h0l-1.2,3.7H165z"/>
			<path d="M172.5,99.8h-3.4v-3.1h10.4v3.1h-3.4v8.9h-3.7V99.8z M172.9,109.5h2.8v1.2c0,0.7-0.2,1.2-0.8,1.5
				c-0.5,0.3-1.2,0.3-1.8,0.3v-0.7c0.7-0.1,0.9-0.3,1-0.6h-1.3V109.5z"/>
			<path d="M180.9,96.8h3.7v12h-3.7V96.8z"/>
			<path d="M192.2,96.5c3.6,0,6.1,2.6,6.1,6.3c0,3.6-2.4,6.3-6.1,6.3c-3.6,0-6.1-2.6-6.1-6.3C186.2,99.1,188.6,96.5,192.2,96.5z
				 M192.2,106c0.9,0,2.4-0.6,2.4-3.3c0-2.7-1.4-3.3-2.4-3.3c-0.9,0-2.4,0.6-2.4,3.3C189.8,105.4,191.3,106,192.2,106z"/>
			<path d="M199.8,96.8h3.8l3.5,6.4h0v-6.4h3.5v12H207l-3.7-6.5h0v6.5h-3.5V96.8z"/>
			<path d="M215.9,96.8h3.6l4.4,12H220l-0.5-1.7h-3.8l-0.5,1.7h-3.7L215.9,96.8z M218.8,104.4l-1.1-3.7h0l-1.2,3.7H218.8z"/>
			<path d="M224.6,96.8h3.7v8.9h5.3v3.1h-9V96.8z"/>
			<path d="M238.5,96.8h3.6l4.4,12h-3.8l-0.5-1.7h-3.8l-0.5,1.7h-3.7L238.5,96.8z M243.4,93.4c-0.1,1.7-1.5,2.6-3.1,2.6
				c-1.8,0-3-0.8-3-2.6h1.3c0.1,0.8,1.1,1.1,1.8,1.1c0.7,0,1.6-0.3,1.7-1.1H243.4z M241.4,104.4l-1.1-3.7h0l-1.2,3.7H241.4z"/>
		</g>
		<g>
			<path d="M49.3,117.5h1.7l4.6,11.8h-1.7l-1.3-3.6h-5l-1.3,3.6h-1.6L49.3,117.5z M48.1,124.5h4l-2-5.5h0L48.1,124.5z"/>
			<path d="M69.8,121.1c-0.3-1.7-1.7-2.5-3.3-2.5c-2.8,0-4,2.3-4,4.8c0,2.7,1.2,5,4,5c2.1,0,3.3-1.5,3.4-3.4h1.6
				c-0.3,3-2.1,4.7-5.1,4.7c-3.7,0-5.5-2.7-5.5-6.2c0-3.4,2-6.2,5.6-6.2c2.5,0,4.5,1.3,4.9,3.8H69.8z"/>
			<path d="M78.4,117.2c3.8,0,5.7,3,5.7,6.2c0,3.2-1.9,6.2-5.7,6.2s-5.7-3-5.7-6.2C72.8,120.2,74.7,117.2,78.4,117.2z M78.4,128.3
				c2.9,0,4.1-2.5,4.1-4.9c0-2.4-1.2-4.9-4.1-4.9c-2.9,0-4.1,2.5-4.1,4.9C74.3,125.8,75.5,128.3,78.4,128.3z"/>
			<path d="M86,117.5h2.2l3.7,9.9l3.7-9.9h2.2v11.8h-1.5v-9.8h0l-3.7,9.8h-1.3l-3.7-9.8h0v9.8H86V117.5z"/>
			<path d="M100.4,117.5h5.2c2.4,0,3.6,1.3,3.6,3.5c0,2.2-1.3,3.5-3.6,3.5H102v4.8h-1.6V117.5z M102,123.2h3.1
				c1.8,0,2.6-0.8,2.6-2.2c0-1.4-0.8-2.2-2.6-2.2H102V123.2z"/>
			<path d="M114.4,117.5h1.7l4.6,11.8H119l-1.3-3.6h-5l-1.3,3.6h-1.6L114.4,117.5z M113.2,124.5h4l-2-5.5h0L113.2,124.5z"/>
			<path d="M121.9,117.5h1.7l6.2,9.6h0v-9.6h1.5v11.8h-1.7l-6.2-9.5h0v9.5h-1.5V117.5z"/>
			<path d="M133.9,117.5h1.6v11.8h-1.6V117.5z"/>
			<path d="M138.2,117.5h1.6v11.8h-1.6V117.5z"/>
			<path d="M142.5,117.5h1.6V128h6.3v1.3h-7.8V117.5z"/>
			<path d="M156.7,117.2c3.8,0,5.7,3,5.7,6.2c0,3.2-1.9,6.2-5.7,6.2c-3.8,0-5.7-3-5.7-6.2C151,120.2,152.9,117.2,156.7,117.2z
				 M156.7,128.3c2.9,0,4.1-2.5,4.1-4.9c0-2.4-1.2-4.9-4.1-4.9c-2.9,0-4.1,2.5-4.1,4.9C152.6,125.8,153.8,128.3,156.7,128.3z"/>
			<path d="M164.3,117.5h5.6c2.2,0,3.6,1.2,3.6,3.1c0,1.4-0.6,2.6-2.1,3v0c1.4,0.3,1.6,1.3,1.8,2.4c0.1,1.1,0,2.5,0.7,3.3h-1.8
				c-0.4-0.5-0.2-1.8-0.4-2.9c-0.2-1.1-0.4-2.1-2-2.1h-3.8v5.1h-1.6V117.5z M169.1,123c1.5,0,2.7-0.4,2.7-2.1c0-1.2-0.6-2-2.1-2
				h-3.9v4.1H169.1z"/>
			<path d="M180.2,117.5h4.1c3.6,0,5.7,1.8,5.7,5.6c0,4-1.7,6.2-5.7,6.2h-4.1V117.5z M181.8,128h2.6c1.1,0,4-0.3,4-4.7
				c0-2.8-1-4.5-3.9-4.5h-2.7V128z"/>
			<path d="M192,117.5h1.6v11.8H192V117.5z"/>
			<path d="M196.2,117.5h1.7l6.2,9.6h0v-9.6h1.5v11.8h-1.7l-6.2-9.5h0v9.5h-1.5V117.5z"/>
			<path d="M46.1,137.4h4.1c3.6,0,5.7,1.8,5.7,5.6c0,4-1.7,6.2-5.7,6.2h-4.1V137.4z M47.7,147.9h2.6c1.1,0,4-0.3,4-4.7
				c0-2.8-1-4.5-3.9-4.5h-2.6V147.9z"/>
			<path d="M62.8,137.1c3.8,0,5.7,3,5.7,6.2c0,3.2-1.9,6.2-5.7,6.2c-3.8,0-5.7-3-5.7-6.2C57.1,140.1,59,137.1,62.8,137.1z
				 M62.8,148.2c2.9,0,4.1-2.5,4.1-4.9s-1.2-4.9-4.1-4.9c-2.9,0-4.1,2.5-4.1,4.9S59.9,148.2,62.8,148.2z"/>
			<path d="M70.4,137.4h2.2l3.7,9.9l3.7-9.9h2.2v11.8h-1.5v-9.8h0l-3.7,9.8h-1.3l-3.7-9.8h0v9.8h-1.5V137.4z"/>
			<path d="M84.8,137.4H93v1.3h-6.6v3.8h6.1v1.3h-6.1v4.1H93v1.3h-8.2V137.4z"/>
			<path d="M94.9,137.4h1.7l6.2,9.6h0v-9.6h1.5v11.8h-1.7l-6.2-9.5h0v9.5h-1.5V137.4z"/>
			<path d="M107,137.4h1.6v11.8H107V137.4z"/>
			<path d="M120.6,145c0,3-1.7,4.6-4.7,4.6c-3,0-4.9-1.4-4.9-4.6v-7.6h1.6v7.6c0,2.1,1.2,3.2,3.3,3.2c2,0,3.1-1.1,3.1-3.2v-7.6h1.6
				V145z"/>
			<path d="M123.1,137.4h1.6v10.5h6.3v1.3h-7.8V137.4z"/>
			<path d="M139.6,138.7h-3.9v-1.3h9.5v1.3h-3.9v10.5h-1.6V138.7z"/>
			<path d="M146.5,137.4h1.6v11.8h-1.6V137.4z"/>
			<path d="M159.1,141c-0.3-1.7-1.7-2.5-3.3-2.5c-2.8,0-4,2.3-4,4.8c0,2.7,1.2,5,4,5c2.1,0,3.3-1.5,3.4-3.4h1.6
				c-0.3,3-2.1,4.7-5.1,4.7c-3.7,0-5.5-2.7-5.5-6.2c0-3.4,2-6.2,5.6-6.2c2.5,0,4.5,1.3,4.9,3.8H159.1z"/>
		</g>
		<g>
			<path class="st0" d="M17.9,25.3c1.2-1.6,2.5-3.1,3.9-4.4l-6-6.4c-1.8,1.7-3.5,3.6-5,5.7C4.2,29.4,2,40.5,4,50.9l8.5-1.6
				C11,41.1,12.7,32.5,17.9,25.3"/>
			<path class="st1" d="M58.2,16.3l4.2-7.6c-12.2-6.7-26.8-6.4-38.5,0l4.2,7.6C37.3,11.2,48.6,11,58.2,16.3"/>
			<path class="st2" d="M73.8,49.5l8.6,1.6c2.5-13.2-1.7-27.1-12-36.7l-5.9,6.4C72.4,28.2,75.7,39.2,73.8,49.5"/>
			<path class="st3" d="M79.3,60.5l-7.9-3.7c-0.8,1.8-1.8,3.5-3,5.1c-5.3,7.3-13.1,11.6-21.4,12.6l1.1,8.6
				c10.6-1.3,20.6-6.8,27.4-16.1C76.9,64.9,78.2,62.8,79.3,60.5"/>
			<path d="M47.8,44.1L47.8,44.1c0.1-1.6-0.5-3.3-1.9-4.3c-1.4-1-3.2-1.2-4.6-0.5l0,0c-0.2,0.1-0.3,0.1-0.5,0.2
				C20,49.9,5,60.1,2,64.6l0,0c-0.4,0.5-0.4,1.2-0.2,1.8l0.1,0.3c1.3,2.6,4.3,6.6,6.5,9c0.2,0.2,0.3,0.4,0.6,0.5
				c1.2,0.8,2.8,0.7,3.8-0.3h0l3.1-3.3c0,0-4.5-4.4-6.4-7.8l30.2-17.4l0.4-0.2l0.6-0.3l-0.1,0.6l-0.1,0.5l-7.3,34.1
				c0,0-3.9-1-6.8-2.4h0c-1.3-0.7-2.9-0.3-3.7,0.9c0,0-0.1,0.1-0.1,0.2c0,0,0,0,0,0l0,0.1v0l-6.6,11.9c0,0,0.8,0.5,3.9,2
				c1.5,0.7,4.9,2,4.9,2l2.7-8.6c0,0,1.4,0.5,2.8,0.9c1.6,0.4,3,0.8,3.6,0.9l0,0c0.7,0.2,1.5,0,1.9-0.7c0,0,0,0,0,0
				C39.2,84.9,44.4,67.4,47.8,44.1"/>
		</g>
	</g>
</g>
</svg>
