<?xml version="1.0" encoding="utf-8"?>
<!-- Generator: Adobe Illustrator 26.0.3, SVG Export Plug-In . SVG Version: 6.00 Build 0)  -->
<svg version="1.1" id="Layer_1" xmlns="http://www.w3.org/2000/svg" xmlns:xlink="http://www.w3.org/1999/xlink" x="0px" y="0px"
	 viewBox="0 0 2000 1323" style="enable-background:new 0 0 2000 1323;" xml:space="preserve">
<style type="text/css">
	.st0{fill:none;stroke:#0C4DA2;stroke-width:7;stroke-miterlimit:10;}
	.st1{fill:#0C4DA2;}
	.st2{fill:#FFF200;}
</style>
<g>
	<g>
		<g>
			<path class="st0" d="M195.9,1247.1c10,0,19.5-1.2,28.7-3.5c9.2-2.3,17.9-5.6,26.2-9.9c8.2-4.3,15.9-9.4,22.9-15.3
				c7-5.9,13.3-12.6,18.8-20l47.7,41.2c-8.4,10.7-17.9,20.4-28.5,29.1c-10.6,8.8-22,16.2-34.3,22.4c-12.3,6.2-25.3,11-38.9,14.3
				c-13.7,3.3-27.9,5-42.7,5c-17,0-33.4-2.2-49.1-6.6c-15.7-4.4-30.5-10.6-44.2-18.7c-13.7-8.1-26.2-17.7-37.4-28.9
				c-11.2-11.2-20.8-23.6-28.9-37.4c-8.1-13.7-14.3-28.5-18.7-44.2c-4.4-15.7-6.6-32.1-6.6-49.1c0-17,2.2-33.4,6.6-49.1
				c4.4-15.7,10.6-30.5,18.7-44.2c8.1-13.7,17.7-26.2,28.9-37.4c11.2-11.2,23.6-20.8,37.4-28.9c13.7-8.1,28.5-14.3,44.2-18.7
				c15.7-4.4,32.1-6.6,49.1-6.6c14.8,0,29,1.7,42.7,5c13.7,3.4,26.6,8.1,38.9,14.3c12.3,6.2,23.7,13.6,34.3,22.3
				c10.6,8.7,20.1,18.3,28.5,29l-47.7,41.5c-5.5-7.4-11.8-14.1-18.8-20.1c-7-6-14.7-11.1-22.9-15.3c-8.2-4.2-17-7.5-26.2-9.8
				c-9.2-2.3-18.8-3.5-28.7-3.5c-16.7,0-32.4,3.2-47.2,9.5c-14.8,6.4-27.7,15-38.7,26c-11,11-19.7,23.8-26,38.5
				c-6.4,14.7-9.5,30.5-9.5,47.3c0,16.7,3.2,32.4,9.5,47.2c6.4,14.8,15,27.7,26,38.7c11,11,23.9,19.7,38.7,26
				C163.5,1243.9,179.2,1247.1,195.9,1247.1z"/>
			<path class="st0" d="M570.6,940.9l1.8,5.2l-36.1,93l-50,127.1h99.7l-24-60.1l36.1-93l115.2,297.4h-74.2l-27.3-75.8H460.6
				l-30.9,75.8h-72.2L500,940.9H570.6z"/>
			<path class="st0" d="M1033.5,940.9v369.6h-70.4v-151.3H827.8v151.3h-72.2V940.9h72.2v151.3h135.3V940.9H1033.5z"/>
			<path class="st0" d="M1281.9,940.9h68.8v234.3c0,18.7-3.6,36.3-10.7,52.7c-7.1,16.4-16.8,30.7-29.1,42.9
				c-12.3,12.2-26.6,21.9-43,29c-16.4,7.1-34,10.7-52.7,10.7c-18.7,0-36.3-3.6-52.7-10.7c-16.4-7.1-30.7-16.8-42.9-29
				c-12.2-12.2-21.9-26.5-29-42.9c-7.1-16.4-10.7-34-10.7-52.7V940.9h68.8v235.8c0,9.3,1.8,18,5.3,26c3.5,8.1,8.3,15.1,14.3,21.1
				c6,6,13.1,10.7,21.1,14.2c8.1,3.4,16.7,5.2,25.8,5.2c9.3,0,18-1.7,26-5.2c8.1-3.4,15.1-8.2,21.1-14.2c6-6,10.8-13.1,14.3-21.1
				c3.5-8.1,5.3-16.8,5.3-26V940.9z"/>
			<path class="st0" d="M1477.6,940.9v302.3h136.3v67.3H1409V940.9H1477.6z"/>
		</g>
	</g>
	<g>
		<g>
			<g>
				<path class="st1" d="M120.3,379.6c-47.9,0-84.3-25.7-109.2-77.1l55.6-34.3c16.3,31.6,34.8,47.4,55.4,47.4
					c10.8,0,20.3-3.3,28.4-9.8c7.3-7,11-14.7,11-22.9c0-8.1-2.6-16.2-7.7-24.5c-3.3-4-8.2-8.9-14.5-14.8c-6.3-5.9-14.2-13-23.7-21.3
					c-18.1-15.6-33.1-29.4-45-41.4c-11.9-11.9-20.6-22.1-26.1-30.5C32.9,133.3,27,116.4,27,99.9c0-24.7,9-46,26.9-63.7
					C72.6,18.8,94.7,10,120.3,10c17.6,0,34,4.4,49.1,13.1c7.8,4,15.9,9.6,24.2,17c8.3,7.4,17.1,16.4,26.4,27.1L171,111.3
					c-16.5-23.9-33.3-35.8-50.6-35.8c-9.6,0-16.5,2.2-20.5,6.4c-5.3,4.3-8,9.8-8,16.5c0,5.2,1.6,10.5,4.7,16
					c3.2,3.4,8.7,8.8,16.6,16.1c7.9,7.3,18.2,16.7,31.1,28.2c15,12.9,26.4,23.1,34.2,30.7c5.2,4.8,9,8.2,11.5,10.3
					c23.3,23.2,34.9,49.8,34.9,79.9c0,29.6-9.6,53.6-28.7,72.2C177.2,370.3,151.9,379.6,120.3,379.6z"/>
				<path class="st1" d="M510.9,10v69.1h-32.4h-65.3v300.5h-70.1V79.1h-63.6H247V10H510.9z"/>
				<path class="st1" d="M693.3,10l1.7,5.2l-34.9,93l-48.4,127.1h96.5L685,175.2l34.9-93l111.5,297.4h-71.8l-26.4-75.8H586.7
					l-29.9,75.8H487L624.9,10H693.3z"/>
				<path class="st1" d="M1118.8,379.6h-73.3l-65.1-126.3h-39.7v126.3h-68.3V10h131.2c31.9,0,59.1,11.6,81.6,34.8
					s33.7,51.3,33.7,84.3v3.6c0,50-23.3,86.9-69.8,110.6L1118.8,379.6z M996.8,184.5c13.6,0,25.4-5.3,35.4-16
					c10-10.3,15-22.9,15-37.9c0-14.6-5-26.8-15-36.6c-9.8-10-21.6-14.9-35.4-14.9h-56.1v105.4H996.8z"/>
				<path class="st1" d="M1398.1,10v69.1h-32.4h-65.3v300.5h-70.1V79.1h-63.6h-32.4V10H1398.1z"/>
				<path class="st1" d="M1622.9,10h66.6v234.3c0,18.7-3.5,36.3-10.4,52.7c-6.9,16.4-16.3,30.7-28.2,42.9
					c-11.9,12.2-25.8,21.9-41.7,29c-15.9,7.1-32.9,10.7-51,10.7c-18.1,0-35.1-3.6-51-10.7c-15.9-7.1-29.7-16.8-41.5-29
					c-11.8-12.2-21.2-26.5-28.1-42.9c-6.9-16.4-10.4-34-10.4-52.7V10h66.6v235.8c0,9.3,1.7,18,5.1,26c3.4,8.1,8,15.1,13.8,21.1
					c5.8,6,12.6,10.7,20.5,14.2c7.8,3.4,16.1,5.2,24.9,5.2c9,0,17.4-1.7,25.2-5.2c7.8-3.4,14.6-8.2,20.5-14.2
					c5.8-6,10.4-13.1,13.8-21.1c3.4-8.1,5.1-16.8,5.1-26V10z"/>
				<path class="st1" d="M1814.2,379.6h-68.3V10h130.9c31.8,0,58.9,11.6,81.6,34.8c23.1,23.4,34.7,51.4,34.7,84v4.9
					c0,32.6-11.6,60.7-34.7,84c-22.8,23-50,34.5-81.6,34.5h-62.6V379.6z M1870,183.5c14.3,0,26.1-4.9,35.4-14.7
					c9.5-9.6,14.2-21.8,14.2-36.6c0-14.8-4.7-27.4-14.2-37.9c-9.5-10.3-21.3-15.5-35.4-15.5h-55.9v104.6H1870z"/>
			</g>
		</g>
	</g>
	<g>
		<path class="st0" d="M1438.5,652.5c5.1,2.9,5.1,10.3,0,13.2l-119.3,68.9l-119.3,68.9c-5.1,2.9-11.5-0.7-11.5-6.6V659.1V521.3
			c0-5.9,6.4-9.6,11.5-6.6l119.3,68.9L1438.5,652.5z"/>
		<path class="st2" d="M1525.1,647.7c5.3,3.1,5.3,10.7,0,13.7l-118.9,68.6l-118.9,68.6c-5.3,3.1-11.9-0.8-11.9-6.9V654.6V517.3
			c0-6.1,6.6-9.9,11.9-6.9l118.9,68.6L1525.1,647.7z"/>
		<path class="st0" d="M1622.1,652.5c5.1,2.9,5.1,10.3,0,13.2l-119.3,68.9l-119.3,68.9c-5.1,2.9-11.5-0.7-11.5-6.6V659.1V521.3
			c0-5.9,6.4-9.6,11.5-6.6l119.3,68.9L1622.1,652.5z"/>
		<path class="st0" d="M1525.1,647.7c5.3,3.1,5.3,10.7,0,13.7l-118.9,68.6l-118.9,68.6c-5.3,3.1-11.9-0.8-11.9-6.9V654.6V517.3
			c0-6.1,6.6-9.9,11.9-6.9l118.9,68.6L1525.1,647.7z"/>
	</g>
	<g>
		<path class="st1" d="M192.2,783c9.8,0,19.2-1.2,28.2-3.5c9-2.3,17.6-5.6,25.6-9.9c8.1-4.3,15.6-9.4,22.5-15.3
			c6.9-5.9,13.1-12.6,18.4-20l46.7,41.2c-8.3,10.7-17.6,20.4-27.9,29.1c-10.4,8.8-21.6,16.2-33.6,22.4c-12,6.2-24.8,11-38.2,14.3
			c-13.4,3.3-27.3,5-41.8,5c-16.7,0-32.7-2.2-48.1-6.6c-15.4-4.4-29.9-10.6-43.3-18.7c-13.5-8.1-25.7-17.7-36.6-28.9
			c-11-11.2-20.4-23.6-28.3-37.4c-7.9-13.7-14-28.5-18.3-44.2c-4.3-15.7-6.4-32.1-6.4-49.1c0-17,2.1-33.4,6.4-49.1
			c4.3-15.7,10.4-30.5,18.3-44.2c7.9-13.7,17.3-26.2,28.3-37.4c10.9-11.2,23.2-20.8,36.6-28.9c13.5-8.1,27.9-14.3,43.3-18.7
			c15.4-4.4,31.5-6.6,48.1-6.6c14.5,0,28.4,1.7,41.8,5c13.4,3.4,26.1,8.1,38.2,14.3c12,6.2,23.2,13.6,33.6,22.3
			c10.4,8.7,19.7,18.3,27.9,29L287,588.9c-5.4-7.4-11.5-14.1-18.4-20.1c-6.9-6-14.4-11.1-22.5-15.3c-8.1-4.2-16.6-7.5-25.6-9.8
			c-9-2.3-18.4-3.5-28.2-3.5c-16.3,0-31.8,3.2-46.2,9.5c-14.5,6.4-27.1,15-37.9,26c-10.8,11-19.3,23.8-25.5,38.5
			c-6.2,14.7-9.3,30.5-9.3,47.3c0,16.7,3.1,32.4,9.3,47.2c6.2,14.8,14.7,27.7,25.5,38.7c10.8,11,23.4,19.7,37.9,26
			C160.5,779.8,175.9,783,192.2,783z"/>
		<path class="st1" d="M374.2,476.8h67.5v369.6h-67.5V476.8z"/>
		<path class="st1" d="M757.7,476.8v69.1h-32.8h-66.2v300.5h-71V545.9h-64.4h-32.8v-69.1H757.7z"/>
		<path class="st1" d="M861.8,476.8l13.6,25.8l87.7,176.3v167.5h-69.2V685.8l-106.6-209H861.8z M1070,476.8l-76.3,151.8l-37.1-72.4
			l40.4-79.4H1070z"/>
	</g>
</g>
</svg>
