<?xml version="1.0" encoding="utf-8"?>
<!-- Generator: Adobe Illustrator 26.0.3, SVG Export Plug-In . SVG Version: 6.00 Build 0)  -->
<svg version="1.1" id="Слой_1" xmlns="http://www.w3.org/2000/svg" xmlns:xlink="http://www.w3.org/1999/xlink" x="0px" y="0px"
	 viewBox="0 0 1676.8 536.3" style="enable-background:new 0 0 1676.8 536.3;" xml:space="preserve">
<style type="text/css">
	.st0{fill:#2B2B2A;}
	.st1{fill:#8763FD;}
</style>
<g>
	<g>
		<g id="XMLID_26_">
			<g id="XMLID_27_">
				<path id="XMLID_28_" class="st0" d="M647.4,108.4v127.4h-34.2V108.4H566V78.6h128.6v29.8H647.4z"/>
			</g>
		</g>
		<g id="XMLID_22_">
			<path id="XMLID_23_" class="st0" d="M769.2,192.4H693c1.4,6.2,4.1,11.1,8.1,14.7c4,3.6,8.8,5.4,14.3,5.4c10.4,0,17.7-4,22.2-12
				l29.4,6c-4.4,10.8-11.1,18.9-20,24.3c-8.9,5.4-19.4,8.2-31.6,8.2c-15.3,0-28.3-5.1-38.9-15.4c-10.6-10.3-15.9-23.5-15.9-39.6
				c0-16,5.3-29.2,15.9-39.5s23.7-15.5,39.2-15.5c15.1,0,27.7,5,37.9,15.1c10.2,10.1,15.5,23.4,15.7,39.9V192.4z M702.1,160.1
				c-4.1,2.9-7,6.9-8.5,12h42.9c-1.5-5.4-4.1-9.4-7.9-12.2c-3.7-2.8-8.1-4.1-13-4.1C710.7,155.8,706.2,157.2,702.1,160.1z"/>
		</g>
		<g id="XMLID_19_">
			<path id="XMLID_20_" class="st0" d="M812.3,197.7v38h-33.1V70.4h33.1v100.9l36-39.3h41l-46.8,51.9l50.1,51.9h-43.1L812.3,197.7z"
				/>
		</g>
		<g id="XMLID_16_">
			<path id="XMLID_17_" class="st0" d="M1007.4,236h-24.9L962,182.4L941.5,236h-24.9l-39.4-104h34l19.1,56.2l20.7-56.2h22l20.7,56.2
				l19.1-56.2h34L1007.4,236z"/>
		</g>
		<g id="XMLID_12_">
			<path id="XMLID_13_" class="st0" d="M1079.8,85.3c3.7,3.7,5.5,8,5.5,13.1c0,5.2-1.8,9.7-5.5,13.2c-3.7,3.6-8.2,5.4-13.8,5.4
				c-5.5,0-10.1-1.8-13.7-5.3c-3.6-3.5-5.4-8-5.4-13.3c0-5.1,1.8-9.5,5.4-13.1c3.6-3.6,8.2-5.5,13.7-5.5
				C1071.6,79.9,1076.1,81.7,1079.8,85.3z M1049.5,235.8V132h33.1v103.8H1049.5z"/>
		</g>
		<g id="XMLID_8_">
			<path id="XMLID_10_" class="st0" d="M1131.7,200.4c0,2.8,0.9,5,2.7,6.6c1.8,1.7,4.2,2.5,7.2,2.5c2.5,0,6.5-1,12-2.9l5.2,25.9
				c-8.8,4.3-17,6.4-24.4,6.4c-10.8,0-19.4-3.3-26-9.9c-6.6-6.6-9.8-15.3-9.8-26.1V70.4h33.1V200.4z"/>
		</g>
		<g id="XMLID_5_">
			<path id="XMLID_6_" class="st0" d="M1197.4,200.4c0,2.8,0.9,5,2.7,6.6c1.8,1.7,4.2,2.5,7.3,2.5c2.5,0,6.5-1,12-2.9l5.2,25.9
				c-8.8,4.3-17,6.4-24.4,6.4c-10.8,0-19.4-3.3-26-9.9c-6.6-6.6-9.8-15.3-9.8-26.1V70.4h33.1V200.4z"/>
		</g>
		<g id="XMLID_1_">
			<path id="XMLID_2_" class="st0" d="M1256,220.7v18.5h-8v-18.5h-7.7V214h23.4v6.7H1256z M1288.2,239.2v-12.8l-5.1,7.7h-4l-5.1-7.7
				v12.8h-7.6V214h7.3l7.4,10.9l7.4-10.9h7.2v25.2H1288.2z"/>
		</g>
	</g>
	<polygon class="st1" points="474,136.3 437.3,263 382.6,231.5 	"/>
	<polygon class="st1" points="474,397.4 382.6,302.3 437.3,270.6 	"/>
	<path class="st1" d="M376,235.3v63.1c-17.6-4.3-101.2-24.9-128.1-31.6C274.9,260.2,358.4,239.6,376,235.3"/>
	<polygon class="st1" points="432.8,266.8 381.5,296.5 381.5,237.2 	"/>
	<polygon class="st1" points="495.9,245.2 495.9,288.4 458.4,266.8 	"/>
	<polygon class="st1" points="247.9,5.8 339.3,101 284.6,132.5 	"/>
	<polygon class="st1" points="474,136.3 345.9,167.9 345.9,104.8 	"/>
	<path class="st1" d="M284.6,140.1l54.7,31.6c-12.6,13.1-72.2,75.1-91.4,95.1C255.6,240.2,279.6,157.6,284.6,140.1"/>
	<polygon class="st1" points="340.4,106.7 340.4,166 289,136.4 	"/>
	<polygon class="st1" points="353.1,41.3 390.6,62.9 353.1,84.5 	"/>
	<polygon class="st1" points="21.9,136.4 150,104.8 150,167.9 	"/>
	<polygon class="st1" points="247.9,5.8 211.3,132.5 156.6,101 	"/>
	<path class="st1" d="M156.6,171.7l54.7-31.6c5.1,17.4,29,100.1,36.7,126.7C228.7,246.9,169.1,184.8,156.6,171.7"/>
	<polygon class="st1" points="155.5,106.7 206.8,136.4 155.5,166.1 	"/>
	<polygon class="st1" points="105.2,63 142.7,41.4 142.7,84.6 	"/>
	<polygon class="st1" points="21.9,397.4 58.6,270.7 113.3,302.3 	"/>
	<polygon class="st1" points="21.9,136.4 113.3,231.5 58.6,263.1 	"/>
	<path class="st1" d="M119.8,298.4v-63.1c17.6,4.3,101.2,24.9,128.1,31.6C221,273.5,137.5,294.1,119.8,298.4"/>
	<polygon class="st1" points="63,266.9 114.4,237.2 114.4,296.5 	"/>
	<polygon class="st1" points="0,288.5 0,245.3 37.5,266.9 	"/>
	<polygon class="st1" points="247.9,527.9 156.6,432.7 211.2,401.2 	"/>
	<polygon class="st1" points="21.9,397.4 149.9,365.8 150,428.9 	"/>
	<path class="st1" d="M211.2,393.5L156.6,362c12.6-13.1,72.2-75.1,91.4-95.2C240.2,293.5,216.3,376.1,211.2,393.5"/>
	<polygon class="st1" points="155.5,427 155.5,367.7 206.8,397.3 	"/>
	<polygon class="st1" points="142.7,492.4 105.3,470.8 142.7,449.1 	"/>
	<polygon class="st1" points="474,397.4 345.9,428.9 345.9,365.8 	"/>
	<polygon class="st1" points="247.9,527.9 284.6,401.2 339.3,432.7 	"/>
	<path class="st1" d="M339.3,362l-54.7,31.6c-5.1-17.4-29-100.1-36.7-126.7C267.1,286.8,326.7,348.9,339.3,362"/>
	<polygon class="st1" points="340.4,427 289,397.3 340.4,367.7 	"/>
	<polygon class="st1" points="390.7,470.7 353.2,492.4 353.2,449.1 	"/>
	<g>
		<path class="st0" d="M582.4,287.3l15.3-21.2h25l15.5,21.2h-23.3l-4.6-6.6l-4.7,6.6H582.4z M622.5,295v66.2h-24.6V295H622.5z"/>
		<path class="st0" d="M698.3,300.4c4.5,4.9,6.8,11.5,6.8,19.8v41h-24.6v-35.8c0-3.1-0.9-5.7-2.6-7.6c-1.7-1.9-4-2.9-6.7-2.9
			c-3.3,0-6,1.2-7.9,3.7c-2,2.4-2.9,5.9-2.9,10.5v32.1h-24.5V295h24.5v6.7c5.3-5.8,12-8.6,19.9-8.6
			C687.8,293,693.8,295.5,698.3,300.4z"/>
		<path class="st0" d="M771.2,310.6H811v21.9h-39.8v28.7H746v-87.8h70.1v21.8h-44.9V310.6z"/>
		<path class="st0" d="M847.8,266.2c2.6,2.7,3.9,5.8,3.9,9.4c0,3.8-1.3,7-3.9,9.6c-2.6,2.5-5.9,3.8-9.9,3.8c-4,0-7.3-1.3-9.9-3.8
			c-2.6-2.5-3.9-5.7-3.9-9.6c0-3.7,1.3-6.8,3.9-9.4s5.9-3.9,9.8-3.9C841.9,262.2,845.2,263.6,847.8,266.2z M825.8,361.1V295h24.5
			v66.2H825.8z"/>
		<path class="st0" d="M930.7,334h-46.5c0.8,3.2,2.2,5.7,4.3,7.5c2.1,1.8,4.7,2.7,7.7,2.7c5.6,0,9.5-2.1,11.7-6.4l21.9,4.3
			c-2.7,6.9-7,12.1-12.8,15.7c-5.9,3.5-12.8,5.3-20.7,5.3c-10.1,0-18.7-3.3-25.6-9.8c-6.9-6.6-10.4-14.9-10.4-25.2
			c0-10.3,3.5-18.7,10.4-25.3c6.9-6.6,15.5-9.8,25.6-9.8c10.1,0,18.4,3.2,24.8,9.7c6.4,6.5,9.6,15.4,9.7,26.7V334z M888.9,314.4
			c-2.1,1.5-3.6,3.5-4.5,6.2H907c-1.7-5.6-5.2-8.4-10.7-8.4C893.5,312.1,891,312.9,888.9,314.4z"/>
		<path class="st0" d="M1007.1,336.2c-1.4,8-5.3,14.5-11.7,19.5c-6.4,4.9-14,7.4-22.7,7.4c-10.2,0-18.9-3.3-26-9.8
			c-7.1-6.6-10.7-14.9-10.7-25.2c0-10.3,3.6-18.7,10.7-25.3c7.1-6.6,15.8-9.8,26-9.8c8.6,0,16.2,2.4,22.5,7.3
			c6.4,4.9,10.3,11.2,11.8,19.2l-22.5,4.7c-0.7-3.4-2.1-6-4.2-7.8c-2.1-1.8-4.6-2.7-7.6-2.7c-3.8,0-7,1.4-9.4,4.1
			c-2.4,2.7-3.7,6.2-3.7,10.3c0,4.1,1.2,7.5,3.7,10.2c2.4,2.7,5.6,4.1,9.4,4.1c6.3,0,10.3-3.5,12.1-10.5L1007.1,336.2z"/>
		<path class="st0" d="M1069.5,300.2c5.5,4.8,8.3,11.5,8.3,20.2v40.7h-23.7v-4.6c-5.2,4.4-11.6,6.6-19.3,6.6c-7.3,0-13.1-2-17.5-6
			c-4.4-4-6.6-9.2-6.6-15.7c0-6.7,2.5-12,7.5-15.7c5-3.8,12.1-5.6,21.3-5.6h14.5v-1.7c0-2.2-0.7-4-2-5.3c-1.4-1.4-3.1-2-5.3-2
			c-4.8,0-7.6,2.3-8.5,6.8l-23.2-4.7c1.7-6.4,5.2-11.3,10.7-14.9c5.5-3.5,12.3-5.3,20.6-5.3C1056.2,293,1064,295.4,1069.5,300.2z
			 M1051,342.9c2.1-1.7,3.1-4.1,3.1-7.1v-2.1h-9.8c-2.4,0-4.3,0.5-5.7,1.6c-1.4,1.1-2.2,2.5-2.2,4.3c0,1.8,0.7,3.3,2,4.3
			c1.4,1,3.1,1.6,5.2,1.6C1046.5,345.6,1049,344.7,1051,342.9z"/>
		<path class="st0" d="M1139.9,294.6l-0.9,25.3h-3.9c-7.1,0-12.5,1.6-16.2,4.9c-3.8,3.3-5.6,8.7-5.6,16.3v20h-24.5V295h24.5v13.1
			c4.9-9.3,12.2-13.9,22-13.9C1137.2,294.2,1138.8,294.3,1139.9,294.6z"/>
		<path class="st0" d="M1213.5,334H1167c0.8,3.2,2.2,5.7,4.3,7.5c2.1,1.8,4.7,2.7,7.7,2.7c5.6,0,9.5-2.1,11.7-6.4l21.9,4.3
			c-2.7,6.9-7,12.1-12.8,15.7s-12.8,5.3-20.7,5.3c-10.1,0-18.7-3.3-25.6-9.8c-6.9-6.6-10.4-14.9-10.4-25.2
			c0-10.3,3.5-18.7,10.4-25.3c6.9-6.6,15.5-9.8,25.6-9.8c10.1,0,18.4,3.2,24.8,9.7c6.4,6.5,9.6,15.4,9.7,26.7V334z M1171.7,314.4
			c-2.1,1.5-3.6,3.5-4.5,6.2h22.5c-1.7-5.6-5.2-8.4-10.7-8.4C1176.3,312.1,1173.8,312.9,1171.7,314.4z"/>
		<path class="st0" d="M1313.3,278.1c6.6,4.5,10.7,10.7,12.3,18.9l-24.6,5c-0.8-3.8-2.4-6.6-5-8.4c-2.5-1.7-5.3-2.6-8.2-2.6
			c-2.8,0-5,0.6-6.8,1.9c-1.7,1.3-2.6,3-2.6,5.2c0,3,1.7,4.8,5.1,5.6l17.8,4.2c16.7,4.2,25,12.9,25,26.1c0,6.5-1.9,12.1-5.7,16.6
			c-3.8,4.5-8.4,7.8-13.8,9.7c-5.4,1.9-11.4,2.9-17.8,2.9c-10.8,0-19.9-2.4-27.3-7.3c-7.3-4.9-11.6-11.5-12.8-19.8l25.7-4.8
			c2,7.8,7,11.7,14.9,11.7c3.1,0,5.5-0.6,7.5-1.8c1.9-1.2,2.9-3,2.9-5.2c0-3-2-4.9-6-5.9l-18.2-4.3c-16.1-3.8-24.1-12.2-24.1-25.4
			c0-9,3.4-16,10.1-21.1c6.7-5.1,15.4-7.6,26.1-7.6C1298.2,271.4,1306.7,273.6,1313.3,278.1z M1276.8,367h23.8l-13.2,21.4h-17
			L1276.8,367z"/>
		<path class="st0" d="M1404.1,336.2c-1.4,8-5.3,14.5-11.7,19.5c-6.4,4.9-14,7.4-22.7,7.4c-10.2,0-18.9-3.3-26-9.8
			c-7.1-6.6-10.7-14.9-10.7-25.2c0-10.3,3.6-18.7,10.7-25.3c7.1-6.6,15.8-9.8,26-9.8c8.6,0,16.2,2.4,22.5,7.3
			c6.4,4.9,10.3,11.2,11.8,19.2l-22.5,4.7c-0.7-3.4-2.1-6-4.2-7.8c-2.1-1.8-4.6-2.7-7.6-2.7c-3.8,0-7,1.4-9.4,4.1s-3.7,6.2-3.7,10.3
			c0,4.1,1.2,7.5,3.7,10.2c2.4,2.7,5.6,4.1,9.4,4.1c6.3,0,10.3-3.5,12.1-10.5L1404.1,336.2z"/>
		<path class="st0" d="M1472.7,303c7.2,6.6,10.8,14.9,10.8,25.2s-3.6,18.6-10.8,25.1c-7.2,6.5-16,9.8-26.3,9.8
			c-10.3,0-19.1-3.3-26.3-9.8c-7.2-6.5-10.8-14.9-10.8-25.1s3.6-18.6,10.8-25.2c7.2-6.6,16-9.8,26.3-9.8
			C1456.7,293.1,1465.5,296.4,1472.7,303z M1455.9,338.5c2.7-2.8,4-6.2,4-10.4c0-4.1-1.3-7.6-3.9-10.4c-2.6-2.8-5.8-4.2-9.6-4.2
			c-3.8,0-6.9,1.4-9.6,4.2c-2.6,2.8-3.9,6.2-3.9,10.4c0,4.1,1.3,7.6,4,10.4c2.7,2.8,5.8,4.2,9.5,4.2
			C1450.1,342.7,1453.3,341.3,1455.9,338.5z"/>
		<path class="st0" d="M1547.1,300.2c5.5,4.8,8.3,11.5,8.3,20.2v40.7h-23.7v-4.6c-5.2,4.4-11.6,6.6-19.3,6.6c-7.3,0-13.1-2-17.5-6
			c-4.4-4-6.6-9.2-6.6-15.7c0-6.7,2.5-12,7.5-15.7c5-3.8,12.1-5.6,21.3-5.6h14.5v-1.7c0-2.2-0.7-4-2-5.3c-1.4-1.4-3.1-2-5.3-2
			c-4.8,0-7.6,2.3-8.5,6.8l-23.2-4.7c1.7-6.4,5.2-11.3,10.7-14.9c5.5-3.5,12.3-5.3,20.6-5.3C1533.8,293,1541.5,295.4,1547.1,300.2z
			 M1528.6,342.9c2.1-1.7,3.1-4.1,3.1-7.1v-2.1h-9.8c-2.4,0-4.3,0.5-5.7,1.6c-1.4,1.1-2.2,2.5-2.2,4.3c0,1.8,0.7,3.3,2,4.3
			c1.4,1,3.1,1.6,5.2,1.6C1524.1,345.6,1526.6,344.7,1528.6,342.9z"/>
		<path class="st0" d="M1589.7,337c0,1.5,0.5,2.7,1.4,3.6c1,0.9,2.2,1.4,3.8,1.4c1.7,0,4-0.5,6.9-1.6l3.7,18c-2,1-3.5,1.8-4.5,2.3
			s-2.6,1-4.8,1.6c-2.3,0.6-4.7,0.9-7.3,0.9c-7.2,0-12.9-2.2-17.2-6.6c-4.3-4.4-6.5-10.2-6.5-17.5v-78.7h24.5V337z"/>
		<path class="st0" d="M1668.5,300.2c5.5,4.8,8.3,11.5,8.3,20.2v40.7h-23.7v-4.6c-5.2,4.4-11.6,6.6-19.3,6.6c-7.3,0-13.1-2-17.5-6
			c-4.4-4-6.6-9.2-6.6-15.7c0-6.7,2.5-12,7.5-15.7c5-3.8,12.1-5.6,21.3-5.6h14.5v-1.7c0-2.2-0.7-4-2-5.3c-1.4-1.4-3.1-2-5.3-2
			c-4.8,0-7.6,2.3-8.5,6.8l-23.2-4.7c1.7-6.4,5.2-11.3,10.7-14.9c5.5-3.5,12.3-5.3,20.6-5.3C1655.3,293,1663,295.4,1668.5,300.2z
			 M1627.4,283.1c-4.5-4-6.8-9.3-6.8-16h18.6c0,1.6,0.5,2.9,1.6,4s2.6,1.6,4.4,1.6s3.3-0.5,4.5-1.6c1.1-1.1,1.7-2.4,1.7-4h18.5
			c0,6.6-2.3,12-6.8,16s-10.5,6-17.8,6S1632,287.1,1627.4,283.1z M1650.1,342.9c2.1-1.7,3.1-4.1,3.1-7.1v-2.1h-9.8
			c-2.4,0-4.3,0.5-5.7,1.6c-1.4,1.1-2.2,2.5-2.2,4.3c0,1.8,0.7,3.3,2,4.3c1.4,1,3.1,1.6,5.2,1.6
			C1645.5,345.6,1648,344.7,1650.1,342.9z"/>
	</g>
	<g>
		<path class="st0" d="M595.2,415.7h15.3c3.7,0,6.7,1,8.9,3c2.3,2,3.4,4.6,3.4,7.9c0,3.3-1.1,5.9-3.4,7.9c-2.2,2-5.1,3-8.9,3h-11.2
			v13.3h-4.1V415.7z M599.3,433.8h11.2c5,0,8.1-2.9,8.1-7.2c0-4.3-3.2-7.2-8.1-7.2h-11.2V433.8z"/>
		<path class="st0" d="M645.6,424.9l-0.3,3.8c-0.3-0.1-0.8-0.1-1.5-0.1c-6.7,0-10.4,4.9-10.4,12.2v10h-4V425h4v6.4
			c2.4-4.4,5.9-6.6,10.4-6.6C644.5,424.7,645.1,424.8,645.6,424.9z"/>
		<path class="st0" d="M671.4,428.2c2.7,2.5,4,5.7,4,9.7c0,3.9-1.3,7.2-4,9.8c-2.6,2.6-5.9,3.8-9.7,3.8c-3.9,0-7.1-1.3-9.8-3.8
			c-2.6-2.6-3.9-5.8-3.9-9.8c0-3.9,1.3-7.1,3.9-9.7c2.7-2.6,5.9-3.8,9.8-3.8C665.5,424.4,668.8,425.7,671.4,428.2z M668.6,445.1
			c1.9-1.9,2.9-4.3,2.9-7.2c0-2.9-0.9-5.3-2.9-7.1c-1.9-1.9-4.2-2.8-6.9-2.8c-2.7,0-5,0.9-7,2.8c-1.9,1.8-2.9,4.2-2.9,7.1
			c0,2.9,0.9,5.4,2.9,7.2c1.9,1.9,4.3,2.8,7,2.8C664.4,448,666.7,447,668.6,445.1z"/>
		<path class="st0" d="M696.3,428.3h-9.4v22.5h-4v-22.5h-4.5V425h4.5v-6.1c0-5.5,3.5-9,8.9-9c1.5,0,2.9,0.3,4.2,0.9l-1,3.3
			c-0.9-0.4-1.9-0.6-2.9-0.6c-3.2,0-5.1,2.1-5.1,5.4v6.1h9.4V428.3z"/>
		<path class="st0" d="M724.1,438.7h-22.2c0.2,2.8,1.2,5,3,6.8c1.8,1.7,3.9,2.5,6.2,2.5c4.3,0,7.2-1.8,8.8-5.6l3.6,0.8
			c-2,5.3-6.5,8.2-12.4,8.2c-3.6,0-6.7-1.3-9.2-3.8c-2.6-2.5-3.9-5.8-3.9-9.8c0-4,1.3-7.3,3.9-9.8c2.6-2.6,5.8-3.8,9.4-3.8
			c3.5,0,6.5,1.2,8.9,3.6c2.4,2.4,3.7,5.5,3.8,9.3V438.7z M705.3,430c-1.8,1.4-2.9,3.3-3.3,5.7h18c-0.7-5-4.3-7.9-8.7-7.9
			C709.2,427.9,707.2,428.6,705.3,430z"/>
		<path class="st0" d="M732.8,443c0.4,3.4,3.4,5.2,7.6,5.2c3.7,0,6.2-1.7,6.2-4.4c0-1.8-1.4-3.1-4.3-3.7l-5.9-1.3
			c-4.5-0.9-6.7-3.2-6.7-6.6c0-4.7,3.9-7.8,9.8-7.8c5.7,0,9.6,2.8,10.6,7.2l-3.8,0.8c-0.6-2.9-3-4.8-6.8-4.8c-3.6,0-5.7,1.7-5.7,4.2
			c0,1.9,1.3,2.9,3.9,3.6l6.2,1.4c4.5,1,6.7,3.3,6.7,6.8c0,5-4.1,8-10.4,8c-6.1,0-10.7-2.8-11.3-7.7L732.8,443z"/>
		<path class="st0" d="M760,419.8c-1.5,0-2.7-1.2-2.7-2.7c0-1.5,1.2-2.7,2.7-2.7c1.5,0,2.8,1.2,2.8,2.7
			C762.8,418.7,761.6,419.8,760,419.8z M762,450.9h-4V425h4V450.9z"/>
		<path class="st0" d="M774.1,419.8c-1.5,0-2.7-1.2-2.7-2.7c0-1.5,1.2-2.7,2.7-2.7c1.5,0,2.8,1.2,2.8,2.7
			C776.9,418.7,775.7,419.8,774.1,419.8z M776.2,450.9h-4V425h4V450.9z"/>
		<path class="st0" d="M789.3,410.4v33.8c0,2.1,1.4,3.5,3.7,3.5c1,0,2-0.3,3.1-0.8l0.8,3.4c-1.5,0.9-3,1.3-4.6,1.3
			c-4.3,0-7-2.8-7-7.1v-34H789.3z"/>
		<path class="st0" d="M825.5,438.7h-22.2c0.2,2.8,1.2,5,3,6.8c1.8,1.7,3.9,2.5,6.2,2.5c4.3,0,7.2-1.8,8.8-5.6l3.6,0.8
			c-2,5.3-6.5,8.2-12.4,8.2c-3.6,0-6.7-1.3-9.2-3.8c-2.6-2.5-3.9-5.8-3.9-9.8c0-4,1.3-7.3,3.9-9.8c2.6-2.6,5.8-3.8,9.4-3.8
			c3.5,0,6.5,1.2,8.9,3.6c2.4,2.4,3.7,5.5,3.8,9.3V438.7z M806.7,430c-1.8,1.4-2.9,3.3-3.3,5.7h18c-0.7-5-4.3-7.9-8.7-7.9
			C810.6,427.9,808.6,428.6,806.7,430z"/>
		<path class="st0" d="M869.2,425l-11.4,25.9h-4.4L842,425h4.4l9.3,21.2l9.2-21.2H869.2z"/>
		<path class="st0" d="M877.2,419.8c-1.5,0-2.7-1.2-2.7-2.7c0-1.5,1.2-2.7,2.7-2.7s2.8,1.2,2.8,2.7
			C880,418.7,878.8,419.8,877.2,419.8z M879.2,450.9h-4V425h4V450.9z"/>
		<path class="st0" d="M891.3,419.8c-1.5,0-2.7-1.2-2.7-2.7c0-1.5,1.2-2.7,2.7-2.7c1.5,0,2.8,1.2,2.8,2.7
			C894.1,418.7,892.9,419.8,891.3,419.8z M893.4,450.9h-4V425h4V450.9z"/>
		<path class="st0" d="M918.6,449.5c-1.9,1.4-3.9,2-6,2c-5.2,0-8.6-3.2-8.6-8.8v-14.4h-5.6V425h5.6v-9.3h4v9.3h9.2v3.4h-9.2v14.2
			c-0.3,4.9,4.7,6.9,9.2,3.7L918.6,449.5z"/>
		<path class="st0" d="M944,428.2c2.7,2.5,4,5.7,4,9.7c0,3.9-1.3,7.2-4,9.8c-2.6,2.6-5.9,3.8-9.7,3.8c-3.9,0-7.1-1.3-9.8-3.8
			c-2.6-2.6-3.9-5.8-3.9-9.8c0-3.9,1.3-7.1,3.9-9.7c2.7-2.6,5.9-3.8,9.8-3.8C938.2,424.4,941.4,425.7,944,428.2z M941.2,445.1
			c1.9-1.9,2.9-4.3,2.9-7.2c0-2.9-0.9-5.3-2.9-7.1c-1.9-1.9-4.2-2.8-6.9-2.8c-2.7,0-5,0.9-7,2.8c-1.9,1.8-2.9,4.2-2.9,7.1
			c0,2.9,0.9,5.4,2.9,7.2c1.9,1.9,4.2,2.8,7,2.8C937,448,939.3,447,941.2,445.1z"/>
		<path class="st0" d="M971.1,424.9l-0.3,3.8c-0.3-0.1-0.8-0.1-1.5-0.1c-6.7,0-10.4,4.9-10.4,12.2v10h-4V425h4v6.4
			c2.4-4.4,5.9-6.6,10.4-6.6C970,424.7,970.7,424.8,971.1,424.9z"/>
		<path class="st0" d="M1000.1,425v25.8h-4v-4.2c-2.2,3.3-5.5,4.9-9.8,4.9c-3.1,0-5.6-1-7.6-3c-1.9-2-2.8-4.7-2.8-8V425h4v14.8
			c0,4.8,2.9,8,7.1,8c5.5,0,9-3.8,9-10.3V425H1000.1z"/>
		<path class="st0" d="M1012.7,410.4v33.8c0,2.1,1.4,3.5,3.7,3.5c1,0,2-0.3,3.1-0.8l0.8,3.4c-1.5,0.9-3,1.3-4.6,1.3
			c-4.2,0-7-2.8-7-7.1v-34H1012.7z"/>
		<path class="st0" d="M1048.8,425v25.8h-4v-4.2c-2.2,3.3-5.5,4.9-9.8,4.9c-3.1,0-5.6-1-7.6-3c-1.9-2-2.8-4.7-2.8-8V425h4v14.8
			c0,4.8,2.9,8,7.1,8c5.5,0,9-3.8,9-10.3V425H1048.8z"/>
		<path class="st0" d="M1060.4,419.8c-1.5,0-2.7-1.2-2.7-2.7c0-1.5,1.2-2.7,2.7-2.7c1.5,0,2.8,1.2,2.8,2.7
			C1063.2,418.7,1062,419.8,1060.4,419.8z M1062.5,450.9h-4V425h4V450.9z"/>
		<path class="st0" d="M1096.1,421.5h-4.1l-3.9-4.9l-4,4.9h-4.1l6.1-7.5h3.8L1096.1,421.5z M1086,425h4v25.9h-4V425z"/>
		<path class="st0" d="M1121.3,427.4c1.9,2,2.9,4.7,2.9,8v15.5h-4v-14.8c0-4.8-2.9-8.1-7.2-8.1c-5.5,0-9,3.8-9,10.4v12.4h-4V425h4
			v4.3c2.2-3.3,5.5-4.9,9.8-4.9C1116.9,424.4,1119.4,425.4,1121.3,427.4z"/>
		<path class="st0" d="M1152.5,442l3.7,1c-0.8,2.6-2.3,4.6-4.6,6.2c-2.3,1.6-4.8,2.4-7.7,2.4c-3.7,0-6.9-1.3-9.6-3.8
			c-2.6-2.5-3.9-5.8-3.9-9.8c0-4,1.3-7.2,3.9-9.8c2.6-2.6,5.8-3.8,9.6-3.8c5.7,0,10.6,3.4,12.3,8.6l-3.8,1.2
			c-1.3-3.9-4.5-6.1-8.5-6.1c-2.7,0-5,0.9-6.8,2.8c-1.8,1.8-2.8,4.3-2.8,7.1c0,2.9,0.9,5.3,2.7,7.1s4.1,2.7,6.9,2.7
			C1147.8,447.8,1151.1,445.7,1152.5,442z"/>
		<path class="st0" d="M1186.7,438.7h-22.2c0.2,2.8,1.2,5,3,6.8c1.8,1.7,3.9,2.5,6.2,2.5c4.3,0,7.2-1.8,8.8-5.6l3.6,0.8
			c-2,5.3-6.5,8.2-12.4,8.2c-3.6,0-6.7-1.3-9.2-3.8c-2.6-2.5-3.9-5.8-3.9-9.8c0-4,1.3-7.3,3.9-9.8c2.6-2.6,5.8-3.8,9.5-3.8
			c3.5,0,6.5,1.2,8.9,3.6c2.4,2.4,3.7,5.5,3.8,9.3V438.7z M1167.9,430c-1.8,1.4-2.9,3.3-3.3,5.7h18c-0.7-5-4.3-7.9-8.7-7.9
			C1171.8,427.9,1169.8,428.6,1167.9,430z"/>
		<path class="st0" d="M1217,428.2c2.6,2.5,3.8,5.8,3.8,9.8s-1.3,7.2-3.8,9.8c-2.5,2.5-5.6,3.8-9.1,3.8c-4.5,0-7.9-1.7-10.3-5v16.9
			h-4V425h4v4.4c2.4-3.3,5.8-5,10.3-5C1211.4,424.4,1214.5,425.6,1217,428.2z M1214.2,445.3c1.8-1.8,2.8-4.3,2.8-7.3
			c0-3-0.9-5.5-2.8-7.3c-1.8-1.8-4.1-2.8-6.9-2.8c-2.6,0-4.8,0.9-6.8,2.8c-1.9,1.8-2.9,4.3-2.9,7.2c0,2.9,0.9,5.4,2.9,7.2
			c1.9,1.8,4.2,2.8,6.8,2.8C1210,448,1212.3,447.1,1214.2,445.3z"/>
		<path class="st0" d="M1260.6,442l3.7,1c-0.8,2.6-2.3,4.6-4.6,6.2c-2.3,1.6-4.8,2.4-7.7,2.4c-3.7,0-6.9-1.3-9.6-3.8
			c-2.6-2.5-3.9-5.8-3.9-9.8c0-4,1.3-7.2,3.9-9.8c2.6-2.6,5.8-3.8,9.6-3.8c5.7,0,10.6,3.4,12.3,8.6l-3.8,1.2
			c-1.3-3.9-4.5-6.1-8.5-6.1c-2.7,0-5,0.9-6.8,2.8c-1.8,1.8-2.8,4.3-2.8,7.1c0,2.9,0.9,5.3,2.7,7.1s4.1,2.7,6.9,2.7
			C1256,447.8,1259.3,445.7,1260.6,442z"/>
		<path class="st0" d="M1294.8,425v25.8h-4v-4.2c-2.2,3.3-5.5,4.9-9.8,4.9c-3.1,0-5.6-1-7.6-3c-1.9-2-2.8-4.7-2.8-8V425h4v14.8
			c0,4.8,2.9,8,7.1,8c5.5,0,9-3.8,9-10.3V425H1294.8z"/>
		<path class="st0" d="M1338.4,427.4c1.9,2,2.9,4.7,2.9,8v15.5h-4v-14.8c0-4.8-2.9-8.1-7.2-8.1c-5.5,0-9,3.8-9,10.4v12.4h-4V425h4
			v4.3c2.2-3.3,5.5-4.9,9.8-4.9C1334,424.4,1336.6,425.4,1338.4,427.4z"/>
		<path class="st0" d="M1371.1,428.2c2.7,2.5,4,5.7,4,9.7c0,3.9-1.3,7.2-4,9.8c-2.6,2.6-5.9,3.8-9.7,3.8c-3.9,0-7.1-1.3-9.8-3.8
			c-2.6-2.6-3.9-5.8-3.9-9.8c0-3.9,1.3-7.1,3.9-9.7c2.7-2.6,5.9-3.8,9.8-3.8C1365.2,424.4,1368.4,425.7,1371.1,428.2z M1368.2,445.1
			c1.9-1.9,2.9-4.3,2.9-7.2c0-2.9-0.9-5.3-2.9-7.1c-1.9-1.9-4.2-2.8-6.9-2.8c-2.7,0-5,0.9-7,2.8c-1.9,1.8-2.9,4.2-2.9,7.1
			c0,2.9,0.9,5.4,2.9,7.2c1.9,1.9,4.2,2.8,7,2.8C1364,448,1366.3,447,1368.2,445.1z"/>
		<path class="st0" d="M1384.3,419.8c-1.5,0-2.7-1.2-2.7-2.7c0-1.5,1.2-2.7,2.7-2.7s2.8,1.2,2.8,2.7
			C1387.1,418.7,1385.9,419.8,1384.3,419.8z M1386.3,450.9h-4V425h4V450.9z"/>
	</g>
</g>
</svg>
