<?xml version="1.0" encoding="utf-8"?>
<!-- Generator: Adobe Illustrator 26.0.3, SVG Export Plug-In . SVG Version: 6.00 Build 0)  -->
<svg version="1.1" id="Layer_1" xmlns="http://www.w3.org/2000/svg" xmlns:xlink="http://www.w3.org/1999/xlink" x="0px" y="0px"
	 viewBox="0 0 500 500" style="enable-background:new 0 0 500 500;" xml:space="preserve">
<style type="text/css">
	.st0{fill:#FFFFFF;}
	.st1{fill:#7BB5FF;}
</style>
<g>
	<g>
		<path class="st0" d="M124.2,223.7v6.6h12.6v5.5h-18.4v-29.4h18.2v5.5h-12.3v6.3h11.3v5.5H124.2z"/>
		<path class="st0" d="M154.6,217.3v-10.9h5.5v29.4h-5.5v-2.5c-1.6,2-3.9,3.1-6.9,3.1c-2.9,0-5.3-1.1-7.4-3.2c-2-2.2-3-4.8-3-7.9
			c0-3.1,1-5.7,3-7.9c2-2.2,4.5-3.2,7.4-3.2C150.7,214.2,153,215.2,154.6,217.3z M144.5,229.6c1.2,1.1,2.6,1.6,4.3,1.6
			c1.7,0,3.1-0.5,4.2-1.6c1.1-1.1,1.7-2.5,1.7-4.3s-0.6-3.1-1.7-4.2c-1.1-1.1-2.5-1.7-4.2-1.7c-1.7,0-3.1,0.6-4.3,1.7
			c-1.1,1.1-1.7,2.5-1.7,4.2S143.4,228.5,144.5,229.6z"/>
		<path class="st0" d="M161.5,206.4h21.9v5.5h-8v23.9h-5.9V212h-8V206.4z"/>
		<path class="st0" d="M201.5,227.5h-16.1c0.7,2.6,2.7,3.9,6,3.9c2.1,0,3.7-0.7,4.8-2.1l4.4,2.5c-2.1,3-5.2,4.5-9.3,4.5
			c-3.5,0-6.3-1-8.5-3.1s-3.2-4.7-3.2-7.9c0-3.1,1-5.8,3.2-7.9c2.1-2.1,4.8-3.2,8.1-3.2c3.2,0,5.7,1.1,7.7,3.2
			c2,2.1,3.1,4.8,3.1,7.9C201.7,225.9,201.7,226.6,201.5,227.5z M185.4,223.3h10.9c-0.3-1.4-0.9-2.4-1.9-3.1c-1-0.7-2.1-1.1-3.4-1.1
			c-1.5,0-2.7,0.4-3.7,1.1C186.3,220.9,185.7,222,185.4,223.3z"/>
		<path class="st0" d="M213.8,236.4c-3.2,0-5.9-1.1-8-3.2c-2.1-2.1-3.2-4.8-3.2-7.9s1.1-5.8,3.2-7.9c2.2-2.1,4.8-3.2,8-3.2
			c2.1,0,4,0.5,5.7,1.5c1.7,1,3,2.3,3.9,3.9l-4.7,2.7c-0.4-0.9-1.1-1.6-1.9-2.1c-0.9-0.5-1.8-0.8-2.9-0.8c-1.6,0-3,0.5-4.1,1.6
			c-1.1,1.1-1.6,2.5-1.6,4.1c0,1.6,0.5,3,1.6,4.1c1.1,1.1,2.4,1.6,4.1,1.6c1.1,0,2.1-0.2,3-0.7c0.9-0.5,1.5-1.2,1.9-2l4.8,2.7
			c-0.9,1.7-2.3,3-4,4C217.8,235.9,215.9,236.4,213.8,236.4z"/>
		<path class="st0" d="M236.5,214.2c2.4,0,4.3,0.8,5.7,2.3c1.5,1.6,2.3,3.7,2.3,6.4v12.9H239v-12.2c0-1.4-0.4-2.4-1.1-3.2
			c-0.8-0.8-1.8-1.1-3.1-1.1c-1.4,0-2.6,0.4-3.4,1.3c-0.8,0.9-1.3,2.2-1.3,3.9v11.3h-5.5v-29.4h5.5v10.8
			C231.5,215.2,233.6,214.2,236.5,214.2z"/>
		<path class="st0" d="M279.8,206.4h6v29.4h-5.8v-19.1l-8.4,13.6H271l-8.4-13.6v19h-5.9v-29.4h6l8.6,13.9L279.8,206.4z"/>
		<path class="st0" d="M307.6,233.2c-2.2,2.1-4.8,3.2-8,3.2c-3.2,0-5.8-1.1-8-3.2c-2.2-2.1-3.2-4.8-3.2-7.9c0-3.1,1.1-5.7,3.2-7.9
			c2.2-2.2,4.9-3.2,8-3.2c3.2,0,5.8,1.1,8,3.2c2.2,2.2,3.3,4.8,3.3,7.9C310.9,228.4,309.8,231,307.6,233.2z M295.5,229.5
			c1.1,1.1,2.5,1.6,4.1,1.6c1.6,0,3-0.5,4.1-1.6s1.7-2.5,1.7-4.2c0-1.7-0.6-3.1-1.7-4.2c-1.1-1.1-2.5-1.6-4.1-1.6
			c-1.6,0-3,0.5-4.1,1.6c-1.1,1.1-1.6,2.5-1.6,4.2C293.8,227,294.4,228.3,295.5,229.5z"/>
		<path class="st0" d="M318.5,235.8H313v-30.7h5.5V235.8z"/>
		<path class="st0" d="M338,217.3v-10.9h5.5v29.4H338v-2.5c-1.6,2-3.9,3.1-6.9,3.1c-2.9,0-5.3-1.1-7.4-3.2c-2-2.2-3-4.8-3-7.9
			c0-3.1,1-5.7,3-7.9c2-2.2,4.5-3.2,7.4-3.2C334.1,214.2,336.4,215.2,338,217.3z M327.9,229.6c1.2,1.1,2.6,1.6,4.3,1.6
			c1.7,0,3.1-0.5,4.2-1.6c1.1-1.1,1.7-2.5,1.7-4.3s-0.6-3.1-1.7-4.2c-1.1-1.1-2.5-1.7-4.2-1.7s-3.1,0.6-4.3,1.7
			c-1.1,1.1-1.7,2.5-1.7,4.2S326.8,228.5,327.9,229.6z"/>
		<path class="st0" d="M365,233.2c-2.2,2.1-4.8,3.2-8,3.2c-3.2,0-5.8-1.1-8-3.2c-2.2-2.1-3.2-4.8-3.2-7.9c0-3.1,1.1-5.7,3.2-7.9
			c2.2-2.2,4.9-3.2,8-3.2c3.2,0,5.8,1.1,8,3.2c2.2,2.2,3.3,4.8,3.3,7.9C368.2,228.4,367.1,231,365,233.2z M352.8,229.5
			c1.1,1.1,2.5,1.6,4.1,1.6c1.6,0,3-0.5,4.1-1.6s1.7-2.5,1.7-4.2c0-1.7-0.6-3.1-1.7-4.2c-1.1-1.1-2.5-1.6-4.1-1.6
			c-1.6,0-3,0.5-4.1,1.6c-1.1,1.1-1.6,2.5-1.6,4.2C351.2,227,351.7,228.3,352.8,229.5z"/>
		<path class="st0" d="M378.4,229.5l5.2-14.7h6l-8.1,21h-6.3l-8.1-21h6L378.4,229.5z"/>
		<path class="st0" d="M405.9,217.3v-2.5h5.5v21h-5.5v-2.5c-1.6,2-4,3.1-6.9,3.1c-2.8,0-5.3-1.1-7.3-3.2c-2-2.2-3-4.8-3-7.9
			c0-3.1,1-5.7,3-7.9c2-2.2,4.5-3.2,7.3-3.2C401.9,214.2,404.2,215.2,405.9,217.3z M395.7,229.6c1.1,1.1,2.5,1.6,4.2,1.6
			s3.1-0.5,4.2-1.6c1.1-1.1,1.7-2.5,1.7-4.3s-0.6-3.1-1.7-4.2c-1.1-1.1-2.5-1.7-4.2-1.7s-3.1,0.6-4.2,1.7c-1.1,1.1-1.7,2.5-1.7,4.2
			S394.6,228.5,395.7,229.6z"/>
		<path class="st0" d="M136.6,278.1h-19.9v-4.3l10.2-10.3c2.3-2.4,3.4-4.3,3.4-5.9c0-1.1-0.4-2.1-1.1-2.8c-0.7-0.7-1.7-1-2.8-1
			c-2.3,0-3.9,1.1-5,3.4l-4.9-2.9c0.9-2,2.2-3.5,4-4.6c1.7-1.1,3.7-1.6,5.9-1.6c2.7,0,5,0.8,6.9,2.5c1.9,1.7,2.9,3.9,2.9,6.7
			c0,3.1-1.6,6.2-4.9,9.4l-5.8,5.8h11.2V278.1z"/>
		<path class="st0" d="M149.5,278.7c-3.7,0-6.6-1.4-8.8-4.2c-2.1-2.8-3.2-6.5-3.2-11.1c0-4.6,1-8.3,3.2-11.1
			c2.1-2.8,5.1-4.2,8.8-4.2c3.8,0,6.7,1.4,8.8,4.2c2.1,2.8,3.2,6.5,3.2,11.1c0,4.6-1.1,8.3-3.2,11.1
			C156.2,277.3,153.2,278.7,149.5,278.7z M155.6,263.4c0-3.1-0.5-5.5-1.6-7.2c-1-1.7-2.5-2.5-4.5-2.5c-2,0-3.5,0.8-4.5,2.5
			c-1,1.7-1.5,4-1.5,7.2c0,3.1,0.5,5.5,1.5,7.2s2.5,2.5,4.5,2.5c2,0,3.5-0.8,4.5-2.5C155,268.9,155.6,266.5,155.6,263.4z"/>
		<path class="st1" d="M181.5,278.1h-19.9v-4.3l10.2-10.3c2.3-2.4,3.4-4.3,3.4-5.9c0-1.1-0.4-2.1-1.1-2.8c-0.7-0.7-1.7-1-2.8-1
			c-2.3,0-3.9,1.1-5,3.4l-4.9-2.9c0.9-2,2.2-3.5,4-4.6c1.7-1.1,3.7-1.6,5.9-1.6c2.7,0,5,0.8,6.9,2.5c1.9,1.7,2.9,3.9,2.9,6.7
			c0,3.1-1.6,6.2-4.9,9.4l-5.8,5.8h11.2V278.1z"/>
		<path class="st1" d="M202.4,278.1h-19.9v-4.3l10.2-10.3c2.3-2.4,3.4-4.3,3.4-5.9c0-1.1-0.4-2.1-1.1-2.8c-0.7-0.7-1.7-1-2.8-1
			c-2.3,0-3.9,1.1-5,3.4l-4.9-2.9c0.9-2,2.2-3.5,4-4.6c1.7-1.1,3.7-1.6,5.9-1.6c2.7,0,5,0.8,6.9,2.5c1.9,1.7,2.9,3.9,2.9,6.7
			c0,3.1-1.6,6.2-4.9,9.4l-5.8,5.8h11.2V278.1z"/>
	</g>
	<g>
		<path class="st0" d="M223.3,252.9h-0.8v-9.2h0.8V252.9z"/>
		<path class="st0" d="M227.5,246.4c1,0,1.7,0.3,2.3,1c0.6,0.7,0.9,1.4,0.9,2.3c0,0,0,0.2,0,0.4h-5.6c0.1,0.6,0.4,1.1,0.8,1.5
			s1,0.6,1.7,0.6c1,0,1.7-0.4,2.1-1.1l0.7,0.4c-0.3,0.5-0.7,0.8-1.2,1.1c-0.5,0.3-1,0.4-1.6,0.4c-1,0-1.8-0.3-2.4-0.9
			c-0.6-0.6-0.9-1.4-0.9-2.4c0-0.9,0.3-1.7,0.9-2.3C225.7,246.7,226.5,246.4,227.5,246.4z M227.5,247.2c-0.7,0-1.2,0.2-1.7,0.6
			c-0.4,0.4-0.7,0.9-0.8,1.5h4.8c-0.1-0.7-0.4-1.2-0.8-1.5C228.6,247.4,228.1,247.2,227.5,247.2z"/>
		<path class="st0" d="M237,247.8v-1.2h0.8v6.3H237v-1.2c-0.6,0.9-1.4,1.4-2.6,1.4c-0.9,0-1.7-0.3-2.3-1c-0.6-0.6-1-1.4-1-2.3
			c0-0.9,0.3-1.7,1-2.3c0.6-0.6,1.4-1,2.3-1C235.5,246.4,236.4,246.9,237,247.8z M232.7,251.5c0.5,0.5,1.1,0.7,1.8,0.7
			c0.7,0,1.3-0.2,1.8-0.7c0.5-0.5,0.7-1.1,0.7-1.8c0-0.7-0.2-1.3-0.7-1.8c-0.5-0.5-1.1-0.7-1.8-0.7c-0.7,0-1.3,0.2-1.8,0.7
			c-0.5,0.5-0.7,1.1-0.7,1.8C232,250.4,232.2,251,232.7,251.5z"/>
		<path class="st0" d="M239.9,246.6v1c0.4-0.8,1.1-1.1,2-1.1v0.8c-0.6,0-1.1,0.2-1.5,0.5c-0.4,0.3-0.5,0.9-0.5,1.6v3.5h-0.8v-6.3
			H239.9z"/>
		<path class="st0" d="M245.6,246.4c0.8,0,1.4,0.2,1.8,0.7s0.7,1.1,0.7,1.9v3.9h-0.8V249c0-0.6-0.2-1-0.5-1.3
			c-0.3-0.3-0.7-0.5-1.3-0.5c-0.6,0-1.1,0.2-1.5,0.6c-0.4,0.4-0.6,1-0.6,1.7v3.3h-0.8v-6.3h0.8v1
			C243.9,246.8,244.6,246.4,245.6,246.4z"/>
		<path class="st0" d="M227.9,260.4v-1.2h0.8v6c0,0.9-0.3,1.6-0.9,2.1c-0.6,0.5-1.4,0.8-2.3,0.8c-1.5,0-2.5-0.5-3-1.5l0.7-0.4
			c0.4,0.8,1.1,1.1,2.3,1.1c0.7,0,1.3-0.2,1.7-0.6s0.6-0.9,0.6-1.5v-1c-0.6,0.9-1.4,1.4-2.6,1.4c-0.9,0-1.7-0.3-2.3-1
			c-0.6-0.6-1-1.4-1-2.3c0-0.9,0.3-1.7,1-2.3c0.6-0.6,1.4-1,2.3-1C226.5,259,227.4,259.4,227.9,260.4z M223.7,264
			c0.5,0.5,1.1,0.7,1.8,0.7c0.7,0,1.3-0.2,1.8-0.7c0.5-0.5,0.7-1.1,0.7-1.8c0-0.7-0.2-1.3-0.7-1.8c-0.5-0.5-1.1-0.7-1.8-0.7
			c-0.7,0-1.3,0.2-1.8,0.7c-0.5,0.5-0.7,1.1-0.7,1.8C222.9,263,223.2,263.6,223.7,264z"/>
		<path class="st0" d="M230.9,259.1v1c0.4-0.8,1.1-1.1,2-1.1v0.8c-0.6,0-1.1,0.2-1.5,0.5c-0.4,0.3-0.5,0.9-0.5,1.6v3.5h-0.8v-6.3
			H230.9z"/>
		<path class="st0" d="M238.5,264.6c-0.7,0.6-1.4,0.9-2.4,0.9c-0.9,0-1.7-0.3-2.4-0.9c-0.6-0.6-1-1.4-1-2.3s0.3-1.7,1-2.3
			c0.6-0.6,1.4-1,2.4-1c0.9,0,1.7,0.3,2.4,1c0.7,0.6,1,1.4,1,2.3C239.5,263.2,239.2,264,238.5,264.6z M234.4,264
			c0.5,0.5,1.1,0.7,1.8,0.7c0.7,0,1.3-0.2,1.8-0.7c0.5-0.5,0.7-1.1,0.7-1.8c0-0.7-0.2-1.3-0.7-1.8c-0.5-0.5-1.1-0.7-1.8-0.7
			c-0.7,0-1.3,0.2-1.8,0.7c-0.5,0.5-0.7,1.1-0.7,1.8C233.6,263,233.9,263.6,234.4,264z"/>
		<path class="st0" d="M246.2,264.3l1.6-5.2h0.9l-2,6.3h-0.9l-1.6-5.1l-1.6,5.1h-0.9l-2-6.3h0.9l1.6,5.2l1.7-5.2h0.8L246.2,264.3z"
			/>
		<path class="st0" d="M223.5,269.8c0,0.2-0.1,0.3-0.2,0.4c-0.1,0.1-0.3,0.2-0.4,0.2c-0.2,0-0.3-0.1-0.4-0.2
			c-0.1-0.1-0.2-0.3-0.2-0.4c0-0.2,0.1-0.3,0.2-0.4c0.1-0.1,0.3-0.2,0.4-0.2c0.2,0,0.3,0.1,0.4,0.2
			C223.4,269.4,223.5,269.6,223.5,269.8z M223.3,278h-0.8v-6.3h0.8V278z"/>
		<path class="st0" d="M227.6,271.5c0.8,0,1.4,0.2,1.8,0.7c0.4,0.5,0.7,1.1,0.7,1.9v3.9h-0.8v-3.9c0-0.6-0.2-1-0.5-1.3
			c-0.3-0.3-0.7-0.5-1.3-0.5c-0.6,0-1.1,0.2-1.5,0.6c-0.4,0.4-0.6,1-0.6,1.7v3.3h-0.8v-6.3h0.8v1
			C225.9,271.9,226.6,271.5,227.6,271.5z"/>
		<path class="st0" d="M234.2,271.5c0.8,0,1.4,0.2,1.8,0.7c0.4,0.5,0.7,1.1,0.7,1.9v3.9h-0.8v-3.9c0-0.6-0.2-1-0.5-1.3
			c-0.3-0.3-0.7-0.5-1.3-0.5c-0.6,0-1.1,0.2-1.5,0.6c-0.4,0.4-0.6,1-0.6,1.7v3.3h-0.8v-6.3h0.8v1
			C232.5,271.9,233.2,271.5,234.2,271.5z"/>
		<path class="st0" d="M243.1,277.2c-0.7,0.6-1.4,0.9-2.4,0.9c-0.9,0-1.7-0.3-2.4-0.9c-0.6-0.6-1-1.4-1-2.3s0.3-1.7,1-2.3
			c0.6-0.6,1.4-1,2.4-1c0.9,0,1.7,0.3,2.4,1c0.7,0.6,1,1.4,1,2.3C244.1,275.7,243.8,276.5,243.1,277.2z M239,276.6
			c0.5,0.5,1.1,0.7,1.8,0.7c0.7,0,1.3-0.2,1.8-0.7c0.5-0.5,0.7-1.1,0.7-1.8c0-0.7-0.2-1.3-0.7-1.8c-0.5-0.5-1.1-0.7-1.8-0.7
			c-0.7,0-1.3,0.2-1.8,0.7c-0.5,0.5-0.7,1.1-0.7,1.8C238.2,275.5,238.5,276.1,239,276.6z"/>
		<path class="st0" d="M247.1,277.1l2.2-5.4h0.9l-2.6,6.3h-1l-2.6-6.3h0.9L247.1,277.1z"/>
		<path class="st0" d="M255.9,272.9v-1.2h0.8v6.3h-0.8v-1.2c-0.6,0.9-1.4,1.4-2.6,1.4c-0.9,0-1.7-0.3-2.3-1c-0.6-0.6-1-1.4-1-2.3
			c0-0.9,0.3-1.7,1-2.3c0.6-0.6,1.4-1,2.3-1C254.5,271.5,255.4,272,255.9,272.9z M251.6,276.6c0.5,0.5,1.1,0.7,1.8,0.7
			c0.7,0,1.3-0.2,1.8-0.7c0.5-0.5,0.7-1.1,0.7-1.8c0-0.7-0.2-1.3-0.7-1.8c-0.5-0.5-1.1-0.7-1.8-0.7c-0.7,0-1.3,0.2-1.8,0.7
			c-0.5,0.5-0.7,1.1-0.7,1.8C250.9,275.5,251.2,276.1,251.6,276.6z"/>
		<path class="st0" d="M261.4,271.7v0.8h-1.8v3.8c0,0.3,0.1,0.6,0.2,0.7c0.1,0.1,0.3,0.2,0.6,0.2c0.3,0,0.6,0,1,0v0.7
			c-0.9,0.1-1.6,0.1-2-0.2c-0.4-0.3-0.7-0.8-0.7-1.5v-3.8h-1.3v-0.8h1.3v-1.5l0.8-0.3v1.8H261.4z"/>
		<path class="st0" d="M264.9,271.5c1,0,1.7,0.3,2.3,1c0.6,0.7,0.9,1.4,0.9,2.3c0,0,0,0.2,0,0.4h-5.6c0.1,0.6,0.4,1.1,0.8,1.5
			c0.5,0.4,1,0.6,1.7,0.6c1,0,1.7-0.4,2.1-1.1l0.7,0.4c-0.3,0.5-0.7,0.8-1.2,1.1c-0.5,0.3-1,0.4-1.6,0.4c-1,0-1.8-0.3-2.4-0.9
			c-0.6-0.6-0.9-1.4-0.9-2.4c0-0.9,0.3-1.7,0.9-2.3C263.1,271.9,263.9,271.5,264.9,271.5z M264.9,272.3c-0.7,0-1.2,0.2-1.7,0.6
			c-0.4,0.4-0.7,0.9-0.8,1.5h4.8c-0.1-0.7-0.4-1.2-0.8-1.5C266,272.5,265.4,272.3,264.9,272.3z"/>
	</g>
	<g>
		<path class="st0" d="M127.7,308.4h-8.3v-1.8l4.3-4.3c1-1,1.4-1.8,1.4-2.5c0-0.5-0.2-0.9-0.5-1.2c-0.3-0.3-0.7-0.4-1.2-0.4
			c-1,0-1.6,0.5-2.1,1.4l-2.1-1.2c0.4-0.8,0.9-1.5,1.7-1.9s1.5-0.7,2.5-0.7c1.1,0,2.1,0.4,2.9,1.1c0.8,0.7,1.2,1.6,1.2,2.8
			c0,1.3-0.7,2.6-2.1,3.9l-2.4,2.4h4.7V308.4z"/>
		<path class="st0" d="M136.1,304.1h1.3v2.2h-1.3v2.1h-2.5v-2.1h-5.9v-2.2l4.2-8h2.6l-4.1,8h3.2v-2.9h2.5V304.1z"/>
		<path class="st0" d="M151.6,296.1h2.5v12.3h-2.4v-8l-3.5,5.7h-0.3l-3.5-5.7v8h-2.5v-12.3h2.5l3.6,5.8L151.6,296.1z"/>
		<path class="st0" d="M162.4,300.7v-1h2.3v8.8h-2.3v-1c-0.7,0.9-1.7,1.3-2.9,1.3c-1.2,0-2.2-0.4-3.1-1.3c-0.8-0.9-1.3-2-1.3-3.3
			c0-1.3,0.4-2.4,1.3-3.3c0.9-0.9,1.9-1.4,3.1-1.4C160.7,299.4,161.7,299.8,162.4,300.7z M158.1,305.8c0.5,0.5,1.1,0.7,1.8,0.7
			c0.7,0,1.3-0.2,1.8-0.7c0.5-0.5,0.7-1.1,0.7-1.8s-0.2-1.3-0.7-1.8c-0.5-0.5-1.1-0.7-1.8-0.7c-0.7,0-1.3,0.2-1.8,0.7
			c-0.5,0.5-0.7,1-0.7,1.8S157.7,305.3,158.1,305.8z"/>
		<path class="st0" d="M167.2,298.6c-0.4,0-0.7-0.1-1-0.4s-0.4-0.6-0.4-1s0.1-0.7,0.4-1s0.6-0.4,1-0.4c0.4,0,0.7,0.1,1,0.4
			c0.3,0.3,0.4,0.6,0.4,1s-0.1,0.7-0.4,1C167.9,298.4,167.6,298.6,167.2,298.6z M168.3,308.4H166v-8.8h2.3V308.4z"/>
		<path class="st0" d="M181.2,308.4h-8.3v-1.8l4.3-4.3c1-1,1.4-1.8,1.4-2.5c0-0.5-0.2-0.9-0.5-1.2c-0.3-0.3-0.7-0.4-1.2-0.4
			c-1,0-1.6,0.5-2.1,1.4l-2.1-1.2c0.4-0.8,0.9-1.5,1.7-1.9s1.5-0.7,2.5-0.7c1.1,0,2.1,0.4,2.9,1.1c0.8,0.7,1.2,1.6,1.2,2.8
			c0,1.3-0.7,2.6-2.1,3.9l-2.4,2.4h4.7V308.4z"/>
		<path class="st0" d="M186.6,308.7c-1.6,0-2.8-0.6-3.7-1.7c-0.9-1.2-1.3-2.7-1.3-4.7c0-1.9,0.4-3.5,1.3-4.6
			c0.9-1.2,2.1-1.8,3.7-1.8c1.6,0,2.8,0.6,3.7,1.8c0.9,1.2,1.3,2.7,1.3,4.6c0,1.9-0.4,3.5-1.3,4.7
			C189.4,308.1,188.2,308.7,186.6,308.7z M189.2,302.3c0-1.3-0.2-2.3-0.7-3c-0.4-0.7-1.1-1-1.9-1c-0.8,0-1.5,0.3-1.9,1
			c-0.4,0.7-0.6,1.7-0.6,3c0,1.3,0.2,2.3,0.6,3c0.4,0.7,1.1,1,1.9,1c0.8,0,1.5-0.3,1.9-1C188.9,304.6,189.2,303.6,189.2,302.3z"/>
		<path class="st0" d="M200,308.4h-8.3v-1.8l4.3-4.3c1-1,1.4-1.8,1.4-2.5c0-0.5-0.2-0.9-0.5-1.2c-0.3-0.3-0.7-0.4-1.2-0.4
			c-1,0-1.6,0.5-2.1,1.4l-2.1-1.2c0.4-0.8,0.9-1.5,1.7-1.9s1.5-0.7,2.5-0.7c1.1,0,2.1,0.4,2.9,1.1c0.8,0.7,1.2,1.6,1.2,2.8
			c0,1.3-0.7,2.6-2.1,3.9l-2.4,2.4h4.7V308.4z"/>
		<path class="st0" d="M208.8,308.4h-8.3v-1.8l4.3-4.3c1-1,1.4-1.8,1.4-2.5c0-0.5-0.2-0.9-0.5-1.2c-0.3-0.3-0.7-0.4-1.2-0.4
			c-1,0-1.6,0.5-2.1,1.4l-2.1-1.2c0.4-0.8,0.9-1.5,1.7-1.9s1.5-0.7,2.5-0.7c1.1,0,2.1,0.4,2.9,1.1c0.8,0.7,1.2,1.6,1.2,2.8
			c0,1.3-0.7,2.6-2.1,3.9l-2.4,2.4h4.7V308.4z"/>
		<path class="st0" d="M210.3,306h2.5l-1.3,4.9h-1.9L210.3,306z"/>
		<path class="st0" d="M223.8,308.7c-1.9,0-3.4-0.6-4.7-1.8c-1.2-1.2-1.8-2.7-1.8-4.6c0-1.8,0.6-3.3,1.8-4.6
			c1.2-1.2,2.8-1.8,4.7-1.8c1.1,0,2.2,0.3,3.1,0.8s1.7,1.2,2.2,2.1L227,300c-0.3-0.6-0.7-1-1.3-1.3c-0.6-0.3-1.2-0.5-1.9-0.5
			c-1.2,0-2.2,0.4-2.9,1.1c-0.7,0.8-1.1,1.7-1.1,2.9c0,1.2,0.4,2.1,1.1,2.9c0.7,0.8,1.7,1.1,2.9,1.1c0.7,0,1.4-0.2,1.9-0.5
			c0.6-0.3,1-0.7,1.3-1.3l2.1,1.2c-0.5,0.9-1.3,1.6-2.2,2.1S224.9,308.7,223.8,308.7z"/>
		<path class="st0" d="M240.6,308.4h-2.7l-0.7-2.2h-5l-0.7,2.2h-2.7l4.4-12.3h3L240.6,308.4z M234.7,298.9l-1.7,5h3.4L234.7,298.9z"
			/>
		<path class="st0" d="M248.2,301v-4.9h2.4v12.3h-2.4v-5.1h-4.6v5.1h-2.5v-12.3h2.5v4.9H248.2z"/>
		<path class="st0" d="M256.9,308.7c-1.4,0-2.5-0.4-3.4-1.2s-1.3-1.8-1.3-3.1v-8.3h2.4v8.1c0,0.7,0.2,1.2,0.6,1.5
			c0.4,0.4,1,0.6,1.7,0.6s1.4-0.2,1.7-0.6c0.4-0.4,0.6-0.9,0.6-1.5v-8.1h2.5v8.3c0,1.3-0.4,2.3-1.3,3.1S258.3,308.7,256.9,308.7z"/>
		<path class="st0" d="M265.6,296.1v10h4.8v2.3h-7.2v-12.3H265.6z"/>
	</g>
</g>
</svg>
