<?xml version="1.0" encoding="utf-8"?>
<!-- Generator: Adobe Illustrator 26.0.3, SVG Export Plug-In . SVG Version: 6.00 Build 0)  -->
<svg version="1.1" id="Layer_1" xmlns="http://www.w3.org/2000/svg" xmlns:xlink="http://www.w3.org/1999/xlink" x="0px" y="0px"
	 viewBox="0 0 157.3 110.8" style="enable-background:new 0 0 157.3 110.8;" xml:space="preserve">
<style type="text/css">
	.st0{fill:#7BB5FF;}
	.st1{fill:#1161C9;}
	.st2{fill:#BEDBFF;}
	.st3{fill:#125EC2;}
	.st4{fill:#FDFEFF;}
</style>
<g>
	<g>
		<path class="st0" d="M7.9,8H23v5.2h-9.9v5H23v5.1h-9.9v7.3H23v5.2H7.9V8z"/>
		<path class="st0" d="M40.6,7.3v10.2c-0.9-0.9-1.9-1.6-3-2.1c-1.1-0.5-2.2-0.7-3.5-0.7c-2.7,0-4.9,1-6.8,3c-1.9,2-2.8,4.6-2.8,7.8
			c0,1.6,0.3,3,0.8,4.3c1.4-1,3.1-1.3,4.9-1.7c-0.3-0.8-0.5-1.6-0.5-2.6c0-1.8,0.5-3.2,1.6-4.3c1.1-1.1,2.4-1.7,4-1.7
			c1.6,0,3,0.6,4,1.7c0.7,0.7,1.2,1.6,1.4,2.6c1.8-0.9,3.6-1.9,5.1-3.3V7.3H40.6z"/>
		<path class="st1" d="M40.8,25.4c0,1.8-0.5,3.3-1.6,4.4c-1.1,1.1-2.4,1.7-4,1.7c-1.6,0-2.9-0.6-4-1.7c-0.5-0.5-0.9-1.1-1.1-1.8
			c-1.7,0.4-3.5,0.7-4.9,1.7c0.5,1.2,1.2,2.4,2.1,3.4c1.9,2.1,4.2,3.1,6.9,3.1c1.2,0,2.3-0.2,3.3-0.6c1-0.4,2-1.1,3-2.1v2.2h5.1
			V20.4c-1.5,1.4-3.3,2.4-5.1,3.3C40.8,24.2,40.8,24.8,40.8,25.4z"/>
		<path class="st1" d="M46.8,8h15.3v5.2h-5v22.5h-5.4V13.2h-4.9V8z"/>
		<path class="st1" d="M81.1,26.9H64.6c0.2,1.5,0.9,2.6,1.9,3.5c1,0.9,2.4,1.3,4,1.3c1.9,0,3.6-0.7,5-2l4.3,2
			c-1.1,1.5-2.4,2.7-3.9,3.4c-1.5,0.7-3.3,1.1-5.4,1.1c-3.2,0-5.8-1-7.9-3c-2-2-3-4.6-3-7.6c0-3.1,1-5.7,3-7.8
			c2-2.1,4.5-3.1,7.6-3.1c3.2,0,5.9,1,7.9,3.1c2,2.1,3,4.8,3,8.2L81.1,26.9z M76,22.9c-0.3-1.1-1-2.1-2-2.8c-1-0.7-2.2-1.1-3.5-1.1
			c-1.4,0-2.7,0.4-3.8,1.2c-0.7,0.5-1.3,1.4-1.9,2.7H76z"/>
		<path class="st1" d="M96.8,19.9c0.8,0.3,1.6,0.9,2.4,1.8l4.3-2.4c-1-1.5-2.4-2.6-4-3.5c-0.1,0-0.1-0.1-0.2-0.1
			c-1,1.3-2,2.7-3.1,3.9C96.4,19.8,96.6,19.9,96.8,19.9z"/>
		<path class="st0" d="M89.3,21.2c1.2-1.1,2.7-1.7,4.7-1.7c0.8,0,1.5,0.1,2.2,0.3c1.1-1.3,2.1-2.6,3.1-3.9c-1.6-0.7-3.3-1.1-5.3-1.1
			c-2.2,0-4.2,0.5-6,1.4c-1.8,1-3.2,2.3-4.2,3.9c-1,1.7-1.5,3.5-1.5,5.5c0,0.4,0,0.8,0.1,1.2c1.7-0.8,3.5-1,5.1-1.4
			C87.6,23.7,88.2,22.3,89.3,21.2z"/>
		<path class="st1" d="M93.8,31.5c-1.9,0-3.4-0.6-4.5-1.7c-1.1-1.1-1.7-2.5-1.7-4.3c0-0.1,0-0.2,0-0.2c-1.7,0.4-3.4,0.6-5.1,1.4
			c0.3,2.4,1.2,4.5,3,6.3c2,2.1,4.9,3.2,8.5,3.2c4,0,7.1-1.4,9.3-4.3l-4.1-2.8C97.9,30.7,96.1,31.5,93.8,31.5z"/>
		<path class="st1" d="M105,7.3h5.1v10c1-0.9,2-1.5,3-2c1-0.4,2-0.7,3.1-0.7c2,0,3.7,0.7,5.1,2.1c1.2,1.2,1.8,3,1.8,5.4v13.5h-5.1
			v-9c0-2.4-0.1-4-0.3-4.8c-0.2-0.8-0.6-1.5-1.2-1.9s-1.2-0.6-2-0.6c-1,0-1.9,0.3-2.7,1c-0.7,0.7-1.3,1.6-1.6,2.8
			c-0.2,0.6-0.2,2-0.2,4.2v8.2H105V7.3z"/>
	</g>
	<g>
		<path class="st0" d="M11.1,42.2H16l6.1,18.5l6.2-18.5h4.9l4.4,26.5h-4.9L30,52l-5.6,16.7h-4.4L14.4,52l-2.9,16.7H6.5L11.1,42.2z"
			/>
		<path class="st1" d="M56,61c-0.8,0.2-1.6,0.4-2.5,0.6c-0.2,0.6-0.6,1.1-1,1.5c-1,1.1-2.3,1.6-3.8,1.6c-1.1,0-2-0.3-2.9-0.8
			c-1.5,0.7-2.9,1.5-4.1,2.6c1.9,1.8,4.2,2.7,6.9,2.7c1.9,0,3.7-0.5,5.2-1.4c1.6-0.9,2.8-2.2,3.8-3.8c0.9-1.6,1.4-3.3,1.4-5.2
			c0,0,0-0.1,0-0.1C58,59.9,56.9,60.8,56,61z"/>
		<path class="st0" d="M44.8,63.1c-1-1.1-1.5-2.4-1.5-4.1c0-1.7,0.5-3,1.5-4.1c1-1.1,2.3-1.6,3.8-1.6c1.6,0,2.8,0.5,3.9,1.6
			c1,1.1,1.5,2.4,1.5,4.1c0,1-0.2,1.8-0.5,2.6c0.8-0.2,1.7-0.4,2.5-0.6c1-0.2,2.1-1.1,3-2.2c0-1.8-0.5-3.5-1.4-5
			c-0.9-1.6-2.2-2.8-3.8-3.8c-1.6-0.9-3.4-1.4-5.2-1.4c-2.6,0-4.8,0.9-6.8,2.7c-2.2,2-3.4,4.6-3.4,7.7c0,2.9,1,5.3,3,7.3
			c0.1,0.1,0.2,0.2,0.3,0.3c1.2-1.1,2.6-2,4.1-2.6C45.4,63.6,45.1,63.4,44.8,63.1z"/>
		<path class="st0" d="M60.6,41.6h4.9v27.2h-4.9V41.6z"/>
		<path class="st0" d="M82.6,41.6h4.9v27.2h-4.9v-2.1c-1,0.9-1.9,1.6-2.9,2c-1,0.4-2,0.6-3.1,0.6c-2.5,0-4.7-1-6.6-2.9
			c-1.8-2-2.8-4.4-2.8-7.3c0-3,0.9-5.5,2.7-7.4c1.8-1.9,4-2.9,6.5-2.9c1.2,0,2.3,0.2,3.3,0.7c1,0.4,2,1.1,2.9,2V41.6z M77.5,53.2
			c-1.5,0-2.8,0.5-3.8,1.6c-1,1.1-1.5,2.5-1.5,4.1c0,1.7,0.5,3.1,1.5,4.2c1,1.1,2.3,1.6,3.8,1.6c1.5,0,2.8-0.5,3.8-1.6
			c1-1.1,1.5-2.5,1.5-4.2c0-1.7-0.5-3.1-1.5-4.1C80.3,53.7,79,53.2,77.5,53.2z"/>
		<path class="st0" d="M96.1,54.8c1-1.1,2.3-1.6,3.8-1.6c0,0,0,0,0.1,0c1.5-1.3,3.1-2.6,4.8-3.4c-1.6-0.8-3.2-1.3-5-1.3
			c-2.6,0-4.8,0.9-6.8,2.7c-2.2,2-3.4,4.6-3.4,7.7c0,0.1,0,0.3,0,0.4c1.7-0.2,3.5-0.6,5-1.4C94.9,56.7,95.3,55.7,96.1,54.8z"/>
		<path class="st1" d="M108.9,53.8c-0.9-1.6-2.2-2.8-3.8-3.8c-0.1,0-0.2-0.1-0.2-0.1c-1.7,0.8-3.4,2-4.8,3.4c1.5,0,2.8,0.5,3.8,1.6
			c1,1.1,1.5,2.4,1.5,4.1c0,1.7-0.5,3.1-1.5,4.1c-1,1.1-2.3,1.6-3.8,1.6c-1.5,0-2.8-0.5-3.8-1.6c-1-1.1-1.5-2.4-1.5-4.1
			c0-0.3,0-0.7,0.1-1c-1.5,0.8-3.2,1.2-5,1.4c0.1,2.7,1.1,5,3,6.9c2,2,4.4,3,7.2,3c1.9,0,3.7-0.5,5.2-1.4c1.6-0.9,2.8-2.2,3.8-3.8
			c0.9-1.6,1.4-3.3,1.4-5.2C110.3,57.1,109.8,55.4,108.9,53.8z"/>
		<path class="st0" d="M110.4,49.1h5l5,11.6l4.9-11.6h5l-8.3,19.6h-3.2L110.4,49.1z"/>
		<path class="st0" d="M134,65.1c2.2,0.6,4.1,0.3,5.8-0.4c-1.1-0.2-2.1-0.7-3-1.6c-1-1.1-1.5-2.5-1.5-4.2c0-1.7,0.5-3.1,1.5-4.1
			c1-1.1,2.3-1.6,3.8-1.6c1.6,0,2.8,0.5,3.9,1.6c1,1.1,1.5,2.4,1.5,4.1c0,0.4,0,0.8-0.1,1.2c0.6-0.6,1.3-1.3,1.9-1.9
			c0.9-0.5,1.8-0.6,2.8-0.5v-8.5h-4.9v2.2c-0.9-0.9-1.8-1.6-2.9-2c-1-0.4-2.1-0.7-3.3-0.7c-2.6,0-4.7,1-6.5,2.9
			c-1.8,1.9-2.7,4.4-2.7,7.4c0,2.6,0.7,4.7,2.1,6.6C132.9,65.1,133.5,65,134,65.1z"/>
		<path class="st1" d="M147.8,58.2c-0.7,0.6-1.3,1.2-1.9,1.9c-0.2,1.2-0.7,2.2-1.4,3.1c-1,1.1-2.3,1.6-3.8,1.6c-0.3,0-0.5,0-0.8-0.1
			c-1.7,0.7-3.6,1-5.8,0.4c-0.5-0.1-1.1,0.1-1.5,0.5c0.2,0.3,0.4,0.5,0.6,0.8c1.8,2,4,2.9,6.6,2.9c1.1,0,2.2-0.2,3.1-0.6
			c1-0.4,1.9-1.1,2.9-2v2.1h4.9V57.6C149.7,57.6,148.7,57.7,147.8,58.2z"/>
	</g>
	<g>
		<g>
			<g>
				<path class="st2" d="M87.3,79.2h0.5V84h2.1v0.5h-2.6V79.2z"/>
				<path class="st2" d="M91.3,79.2h3.1v0.5h-2.5v1.7h2.5v0.5h-2.5V84h2.5v0.5h-3V79.2z"/>
				<path class="st2" d="M98,79.2l2.5,5.3h-0.6l-0.8-1.8h-2.3l-0.8,1.8h-0.6l2.5-5.3H98z M97.9,80.3L97,82.2h1.8L97.9,80.3z"/>
				<path class="st2" d="M101.9,79.2h1.1c0.6,0,1,0,1.2,0.1c0.3,0.1,0.6,0.2,0.8,0.5c0.2,0.2,0.3,0.5,0.3,0.9c0,0.3-0.1,0.5-0.2,0.8
					c-0.1,0.2-0.3,0.4-0.6,0.5s-0.6,0.2-1.1,0.2l1.9,2.5h-0.7l-1.9-2.5h-0.3v2.5h-0.5V79.2z M102.4,79.7v1.8l0.9,0
					c0.4,0,0.6,0,0.8-0.1s0.3-0.2,0.4-0.3c0.1-0.1,0.1-0.3,0.1-0.5c0-0.2,0-0.3-0.1-0.5c-0.1-0.1-0.2-0.3-0.4-0.3s-0.4-0.1-0.8-0.1
					H102.4z"/>
				<path class="st2" d="M106.9,84.5v-5.3h0.1l3.6,4.1v-4.1h0.5v5.3H111l-3.5-4.1v4.1H106.9z"/>
				<path class="st2" d="M115.3,79l-2.2,6.2h-0.6l2.2-6.2H115.3z"/>
			</g>
		</g>
		<g>
			<g>
				<path class="st0" d="M92.5,89.4l-0.4,0.4c-0.3-0.3-0.6-0.5-1-0.7c-0.4-0.2-0.7-0.2-1-0.2c-0.4,0-0.8,0.1-1.2,0.3
					c-0.4,0.2-0.7,0.5-0.9,0.8c-0.2,0.4-0.3,0.7-0.3,1.1c0,0.4,0.1,0.8,0.3,1.1s0.5,0.6,0.9,0.9c0.4,0.2,0.8,0.3,1.3,0.3
					c0.6,0,1-0.2,1.4-0.5s0.6-0.7,0.7-1.2h-1.7v-0.5h2.3c0,0.8-0.3,1.5-0.7,2c-0.5,0.5-1.1,0.7-2,0.7c-1,0-1.8-0.3-2.3-1
					c-0.4-0.5-0.7-1.1-0.7-1.8c0-0.5,0.1-1,0.4-1.4c0.3-0.4,0.6-0.8,1-1s0.9-0.4,1.5-0.4c0.5,0,0.9,0.1,1.3,0.2
					C91.7,88.8,92.1,89,92.5,89.4z"/>
				<path class="st0" d="M94.4,88.5h1.1c0.6,0,1,0,1.2,0.1c0.3,0.1,0.6,0.2,0.8,0.5c0.2,0.2,0.3,0.5,0.3,0.9c0,0.3-0.1,0.5-0.2,0.8
					c-0.1,0.2-0.3,0.4-0.6,0.5c-0.3,0.1-0.6,0.2-1.1,0.2l1.9,2.5h-0.7l-1.9-2.5h-0.3v2.5h-0.5V88.5z M94.9,89v1.8l0.9,0
					c0.4,0,0.6,0,0.8-0.1c0.2-0.1,0.3-0.2,0.4-0.3c0.1-0.1,0.1-0.3,0.1-0.5c0-0.2,0-0.3-0.1-0.5c-0.1-0.1-0.2-0.3-0.4-0.3
					S96.2,89,95.9,89H94.9z"/>
				<path class="st0" d="M102,88.4c0.8,0,1.5,0.3,2,0.8c0.5,0.5,0.8,1.2,0.8,2c0,0.8-0.3,1.4-0.8,2c-0.5,0.5-1.2,0.8-2,0.8
					c-0.8,0-1.5-0.3-2-0.8s-0.8-1.2-0.8-2c0-0.5,0.1-1,0.4-1.4c0.2-0.4,0.6-0.8,1-1C101,88.5,101.5,88.4,102,88.4z M102,88.9
					c-0.4,0-0.8,0.1-1.1,0.3c-0.4,0.2-0.6,0.5-0.8,0.8c-0.2,0.3-0.3,0.7-0.3,1.2c0,0.6,0.2,1.2,0.7,1.6c0.4,0.4,1,0.7,1.6,0.7
					c0.4,0,0.8-0.1,1.2-0.3s0.6-0.5,0.8-0.8c0.2-0.3,0.3-0.7,0.3-1.2c0-0.4-0.1-0.8-0.3-1.2c-0.2-0.3-0.5-0.6-0.8-0.8
					C102.8,89,102.4,88.9,102,88.9z"/>
				<path class="st0" d="M106.1,88.5h0.5l1.1,3.9l1.5-3.9h0.1l1.5,3.9l1.1-3.9h0.5l-1.5,5.3h-0.1l-1.6-4l-1.6,4h-0.1L106.1,88.5z"/>
				<path class="st0" d="M116.5,88.4l-2.2,6.2h-0.6l2.2-6.2H116.5z"/>
			</g>
		</g>
		<g>
			<g>
				<path class="st3" d="M87.3,97.8h0.5v5.3h-0.5V97.8z"/>
				<path class="st3" d="M89.6,103.1v-5.3h0.1l3.6,4.1v-4.1h0.5v5.3h-0.1l-3.5-4v4H89.6z"/>
				<path class="st3" d="M95.6,103.1v-5.3h0.1l3.6,4.1v-4.1h0.5v5.3h-0.1l-3.5-4v4H95.6z"/>
				<path class="st3" d="M104.2,97.7c0.8,0,1.5,0.3,2,0.8c0.5,0.5,0.8,1.2,0.8,2c0,0.8-0.3,1.4-0.8,2c-0.5,0.5-1.2,0.8-2,0.8
					c-0.8,0-1.5-0.3-2-0.8s-0.8-1.2-0.8-2c0-0.5,0.1-1,0.4-1.4c0.2-0.4,0.6-0.8,1-1C103.2,97.8,103.7,97.7,104.2,97.7z M104.2,98.2
					c-0.4,0-0.8,0.1-1.1,0.3c-0.4,0.2-0.6,0.5-0.8,0.8c-0.2,0.3-0.3,0.7-0.3,1.2c0,0.6,0.2,1.2,0.7,1.6c0.4,0.4,1,0.7,1.6,0.7
					c0.4,0,0.8-0.1,1.2-0.3s0.6-0.5,0.8-0.8c0.2-0.3,0.3-0.7,0.3-1.2c0-0.4-0.1-0.8-0.3-1.2c-0.2-0.3-0.5-0.6-0.8-0.8
					C105,98.3,104.6,98.2,104.2,98.2z"/>
				<path class="st3" d="M108.2,97.8h0.6l1.8,4.1l1.8-4.1h0.6l-2.3,5.3h-0.1L108.2,97.8z"/>
				<path class="st3" d="M116.5,97.8l2.5,5.3h-0.6l-0.8-1.8h-2.3l-0.8,1.8h-0.6l2.5-5.3H116.5z M116.5,98.9l-0.9,1.9h1.8L116.5,98.9
					z"/>
				<path class="st3" d="M119.9,98.3v-0.5h2.9v0.5h-1.2v4.8H121v-4.8H119.9z"/>
				<path class="st3" d="M124.1,97.8h3.1v0.5h-2.5v1.7h2.5v0.5h-2.5v2.1h2.5v0.5h-3V97.8z"/>
			</g>
		</g>
	</g>
	<g>
		<path class="st0" d="M11.2,88.1H7.1c0.1-2.4,0.9-4.2,2.2-5.6c1.4-1.4,3.1-2,5.3-2c1.3,0,2.5,0.3,3.5,0.8s1.8,1.4,2.4,2.4
			c0.6,1.1,0.9,2.1,0.9,3.2c0,1.3-0.4,2.7-1.1,4.2c-0.7,1.5-2.1,3.3-4.1,5.3l-2.5,2.6h7.8v3.9H6.5v-2l6.8-6.9c1.6-1.7,2.7-3,3.3-4
			c0.5-1,0.8-1.9,0.8-2.7c0-0.8-0.3-1.5-0.8-2.1c-0.6-0.6-1.3-0.8-2.2-0.8c-0.9,0-1.6,0.3-2.2,1S11.2,87,11.2,88.1z"/>
		<path class="st0" d="M31.5,80.5c1.6,0,3,0.4,4.1,1.2c1.2,0.8,2.1,2,2.7,3.6c0.6,1.6,0.9,3.9,0.9,6.8c0,2.9-0.3,5.2-1,6.8
			c-0.6,1.6-1.5,2.8-2.6,3.6c-1.1,0.8-2.5,1.1-4.1,1.1s-3-0.4-4.2-1.2s-2-1.9-2.6-3.5c-0.6-1.6-1-3.8-1-6.7c0-4,0.6-7,1.9-8.8
			C27.1,81.5,29,80.5,31.5,80.5z M31.6,84.5c-0.7,0-1.3,0.2-1.9,0.7c-0.5,0.5-1,1.2-1.3,2.3c-0.3,1.1-0.4,2.7-0.4,4.9
			c0,2.8,0.3,4.7,1,5.8c0.7,1.1,1.5,1.6,2.6,1.6c1,0,1.8-0.5,2.4-1.5c0.7-1.2,1.1-3.2,1.1-6.1c0-2.9-0.3-4.9-1-6
			C33.4,85,32.6,84.5,31.6,84.5z"/>
		<path class="st4" d="M45.4,88.1h-4.1c0.1-2.4,0.9-4.2,2.2-5.6c1.4-1.4,3.1-2,5.3-2c1.3,0,2.5,0.3,3.5,0.8s1.8,1.4,2.4,2.4
			c0.6,1.1,0.9,2.1,0.9,3.2c0,1.3-0.4,2.7-1.1,4.2c-0.7,1.5-2.1,3.3-4.1,5.3l-2.5,2.6H56v3.9H40.8v-2l6.8-6.9c1.6-1.7,2.7-3,3.3-4
			c0.5-1,0.8-1.9,0.8-2.7c0-0.8-0.3-1.5-0.8-2.1c-0.6-0.6-1.3-0.8-2.2-0.8c-0.9,0-1.6,0.3-2.2,1C45.8,86.1,45.5,87,45.4,88.1z"/>
		<path class="st4" d="M62.6,88.1h-4.1c0.1-2.4,0.9-4.2,2.2-5.6c1.4-1.4,3.1-2,5.3-2c1.3,0,2.5,0.3,3.5,0.8c1,0.6,1.8,1.4,2.4,2.4
			c0.6,1.1,0.9,2.1,0.9,3.2c0,1.3-0.4,2.7-1.1,4.2c-0.7,1.5-2.1,3.3-4.1,5.3l-2.5,2.6h7.8v3.9H57.9v-2l6.8-6.9c1.6-1.7,2.7-3,3.3-4
			c0.5-1,0.8-1.9,0.8-2.7c0-0.8-0.3-1.5-0.8-2.1c-0.6-0.6-1.3-0.8-2.2-0.8c-0.9,0-1.6,0.3-2.2,1C62.9,86.1,62.6,87,62.6,88.1z"/>
	</g>
</g>
</svg>
