<?xml version="1.0" encoding="utf-8"?>
<!-- Generator: Adobe Illustrator 26.0.3, SVG Export Plug-In . SVG Version: 6.00 Build 0)  -->
<svg version="1.1" id="Layer_1" xmlns="http://www.w3.org/2000/svg" xmlns:xlink="http://www.w3.org/1999/xlink" x="0px" y="0px"
	 viewBox="0 0 157.3 110.8" style="enable-background:new 0 0 157.3 110.8;" xml:space="preserve">
<style type="text/css">
	.st0{fill:#FFFFFF;}
</style>
<g>
	<g>
		<path class="st0" d="M7.9,31.1H23v5.2h-9.9v5H23v5.1h-9.9v7.3H23v5.2H7.9V31.1z"/>
		<path class="st0" d="M40.6,30.4v10.2c-0.9-0.9-1.9-1.6-3-2.1c-1.1-0.5-2.2-0.7-3.5-0.7c-2.7,0-4.9,1-6.8,3c-1.9,2-2.8,4.6-2.8,7.8
			c0,1.6,0.3,3,0.8,4.3c1.4-1,3.1-1.3,4.9-1.7c-0.3-0.8-0.5-1.6-0.5-2.6c0-1.8,0.5-3.2,1.6-4.3c1.1-1.1,2.4-1.7,4-1.7
			c1.6,0,3,0.6,4,1.7c0.7,0.7,1.2,1.6,1.4,2.6c1.8-0.9,3.6-1.9,5.1-3.3V30.4H40.6z"/>
		<path class="st0" d="M40.8,48.5c0,1.8-0.5,3.3-1.6,4.4c-1.1,1.1-2.4,1.7-4,1.7c-1.6,0-2.9-0.6-4-1.7c-0.5-0.5-0.9-1.1-1.1-1.8
			c-1.7,0.4-3.5,0.7-4.9,1.7c0.5,1.2,1.2,2.4,2.1,3.4c1.9,2.1,4.2,3.1,6.9,3.1c1.2,0,2.3-0.2,3.3-0.6c1-0.4,2-1.1,3-2.1v2.2h5.1
			V43.5c-1.5,1.4-3.3,2.4-5.1,3.3C40.8,47.3,40.8,47.9,40.8,48.5z"/>
		<path class="st0" d="M46.8,31.1h15.3v5.2h-5v22.5h-5.4V36.3h-4.9V31.1z"/>
		<path class="st0" d="M81.1,50H64.6c0.2,1.5,0.9,2.6,1.9,3.5c1,0.9,2.4,1.3,4,1.3c1.9,0,3.6-0.7,5-2l4.3,2
			c-1.1,1.5-2.4,2.7-3.9,3.4c-1.5,0.7-3.3,1.1-5.4,1.1c-3.2,0-5.8-1-7.9-3c-2-2-3-4.6-3-7.6c0-3.1,1-5.7,3-7.8
			c2-2.1,4.5-3.1,7.6-3.1c3.2,0,5.9,1,7.9,3.1c2,2.1,3,4.8,3,8.2L81.1,50z M76,46c-0.3-1.1-1-2.1-2-2.8c-1-0.7-2.2-1.1-3.5-1.1
			c-1.4,0-2.7,0.4-3.8,1.2c-0.7,0.5-1.3,1.4-1.9,2.7H76z"/>
		<path class="st0" d="M96.8,43.1c0.8,0.3,1.6,0.9,2.4,1.8l4.3-2.4c-1-1.5-2.4-2.6-4-3.5c-0.1,0-0.1-0.1-0.2-0.1
			c-1,1.3-2,2.7-3.1,3.9C96.4,42.9,96.6,43,96.8,43.1z"/>
		<path class="st0" d="M89.3,44.3c1.2-1.1,2.7-1.7,4.7-1.7c0.8,0,1.5,0.1,2.2,0.3c1.1-1.3,2.1-2.6,3.1-3.9c-1.6-0.7-3.3-1.1-5.3-1.1
			c-2.2,0-4.2,0.5-6,1.4c-1.8,1-3.2,2.3-4.2,3.9c-1,1.7-1.5,3.5-1.5,5.5c0,0.4,0,0.8,0.1,1.2c1.7-0.8,3.5-1,5.1-1.4
			C87.6,46.8,88.2,45.4,89.3,44.3z"/>
		<path class="st0" d="M93.8,54.6c-1.9,0-3.4-0.6-4.5-1.7c-1.1-1.1-1.7-2.5-1.7-4.3c0-0.1,0-0.2,0-0.2c-1.7,0.4-3.4,0.6-5.1,1.4
			c0.3,2.4,1.2,4.5,3,6.3c2,2.1,4.9,3.2,8.5,3.2c4,0,7.1-1.4,9.3-4.3l-4.1-2.8C97.9,53.8,96.1,54.6,93.8,54.6z"/>
		<path class="st0" d="M105,30.4h5.1v10c1-0.9,2-1.5,3-2c1-0.4,2-0.7,3.1-0.7c2,0,3.7,0.7,5.1,2.1c1.2,1.2,1.8,3,1.8,5.4v13.5h-5.1
			v-9c0-2.4-0.1-4-0.3-4.8c-0.2-0.8-0.6-1.5-1.2-1.9s-1.2-0.6-2-0.6c-1,0-1.9,0.3-2.7,1c-0.7,0.7-1.3,1.6-1.6,2.8
			c-0.2,0.6-0.2,2-0.2,4.2v8.2H105V30.4z"/>
	</g>
	<g>
		<path class="st0" d="M11.1,65.3H16l6.1,18.5l6.2-18.5h4.9l4.4,26.5h-4.9L30,75.1l-5.6,16.7h-4.4l-5.6-16.7l-2.9,16.7H6.5
			L11.1,65.3z"/>
		<path class="st0" d="M56,84.1c-0.8,0.2-1.6,0.4-2.5,0.6c-0.2,0.6-0.6,1.1-1,1.5c-1,1.1-2.3,1.6-3.8,1.6c-1.1,0-2-0.3-2.9-0.8
			c-1.5,0.7-2.9,1.5-4.1,2.6c1.9,1.8,4.2,2.7,6.9,2.7c1.9,0,3.7-0.5,5.2-1.4c1.6-0.9,2.8-2.2,3.8-3.8c0.9-1.6,1.4-3.3,1.4-5.2
			c0,0,0-0.1,0-0.1C58,83,56.9,83.9,56,84.1z"/>
		<path class="st0" d="M44.8,86.2c-1-1.1-1.5-2.4-1.5-4.1c0-1.7,0.5-3,1.5-4.1c1-1.1,2.3-1.6,3.8-1.6c1.6,0,2.8,0.5,3.9,1.6
			c1,1.1,1.5,2.4,1.5,4.1c0,1-0.2,1.8-0.5,2.6c0.8-0.2,1.7-0.4,2.5-0.6c1-0.2,2.1-1.1,3-2.2c0-1.8-0.5-3.5-1.4-5
			c-0.9-1.6-2.2-2.8-3.8-3.8c-1.6-0.9-3.4-1.4-5.2-1.4c-2.6,0-4.8,0.9-6.8,2.7c-2.2,2-3.4,4.6-3.4,7.7c0,2.9,1,5.3,3,7.3
			c0.1,0.1,0.2,0.2,0.3,0.3c1.2-1.1,2.6-2,4.1-2.6C45.4,86.8,45.1,86.5,44.8,86.2z"/>
		<path class="st0" d="M60.6,64.7h4.9v27.2h-4.9V64.7z"/>
		<path class="st0" d="M82.6,64.7h4.9v27.2h-4.9v-2.1c-1,0.9-1.9,1.6-2.9,2c-1,0.4-2,0.6-3.1,0.6c-2.5,0-4.7-1-6.6-2.9
			c-1.8-2-2.8-4.4-2.8-7.3c0-3,0.9-5.5,2.7-7.4c1.8-1.9,4-2.9,6.5-2.9c1.2,0,2.3,0.2,3.3,0.7c1,0.4,2,1.1,2.9,2V64.7z M77.5,76.3
			c-1.5,0-2.8,0.5-3.8,1.6c-1,1.1-1.5,2.5-1.5,4.1c0,1.7,0.5,3.1,1.5,4.2c1,1.1,2.3,1.6,3.8,1.6c1.5,0,2.8-0.5,3.8-1.6
			c1-1.1,1.5-2.5,1.5-4.2c0-1.7-0.5-3.1-1.5-4.1C80.3,76.8,79,76.3,77.5,76.3z"/>
		<path class="st0" d="M96.1,78c1-1.1,2.3-1.6,3.8-1.6c0,0,0,0,0.1,0c1.5-1.3,3.1-2.6,4.8-3.4c-1.6-0.8-3.2-1.3-5-1.3
			c-2.6,0-4.8,0.9-6.8,2.7c-2.2,2-3.4,4.6-3.4,7.7c0,0.1,0,0.3,0,0.4c1.7-0.2,3.5-0.6,5-1.4C94.9,79.9,95.3,78.8,96.1,78z"/>
		<path class="st0" d="M108.9,76.9c-0.9-1.6-2.2-2.8-3.8-3.8c-0.1,0-0.2-0.1-0.2-0.1c-1.7,0.8-3.4,2-4.8,3.4c1.5,0,2.8,0.5,3.8,1.6
			c1,1.1,1.5,2.4,1.5,4.1c0,1.7-0.5,3.1-1.5,4.1c-1,1.1-2.3,1.6-3.8,1.6c-1.5,0-2.8-0.5-3.8-1.6c-1-1.1-1.5-2.4-1.5-4.1
			c0-0.3,0-0.7,0.1-1c-1.5,0.8-3.2,1.2-5,1.4c0.1,2.7,1.1,5,3,6.9c2,2,4.4,3,7.2,3c1.9,0,3.7-0.5,5.2-1.4c1.6-0.9,2.8-2.2,3.8-3.8
			c0.9-1.6,1.4-3.3,1.4-5.2C110.3,80.2,109.8,78.5,108.9,76.9z"/>
		<path class="st0" d="M110.4,72.2h5l5,11.6l4.9-11.6h5l-8.3,19.6h-3.2L110.4,72.2z"/>
		<path class="st0" d="M134,88.2c2.2,0.6,4.1,0.3,5.8-0.4c-1.1-0.2-2.1-0.7-3-1.6c-1-1.1-1.5-2.5-1.5-4.2c0-1.7,0.5-3.1,1.5-4.1
			c1-1.1,2.3-1.6,3.8-1.6c1.6,0,2.8,0.5,3.9,1.6c1,1.1,1.5,2.4,1.5,4.1c0,0.4,0,0.8-0.1,1.2c0.6-0.6,1.3-1.3,1.9-1.9
			c0.9-0.5,1.8-0.6,2.8-0.5v-8.5h-4.9v2.2c-0.9-0.9-1.8-1.6-2.9-2c-1-0.4-2.1-0.7-3.3-0.7c-2.6,0-4.7,1-6.5,2.9
			c-1.8,1.9-2.7,4.4-2.7,7.4c0,2.6,0.7,4.7,2.1,6.6C132.9,88.3,133.5,88.1,134,88.2z"/>
		<path class="st0" d="M147.8,81.3c-0.7,0.6-1.3,1.2-1.9,1.9c-0.2,1.2-0.7,2.2-1.4,3.1c-1,1.1-2.3,1.6-3.8,1.6c-0.3,0-0.5,0-0.8-0.1
			c-1.7,0.7-3.6,1-5.8,0.4c-0.5-0.1-1.1,0.1-1.5,0.5c0.2,0.3,0.4,0.5,0.6,0.8c1.8,2,4,2.9,6.6,2.9c1.1,0,2.2-0.2,3.1-0.6
			c1-0.4,1.9-1.1,2.9-2v2.1h4.9V80.7C149.7,80.7,148.7,80.8,147.8,81.3z"/>
	</g>
</g>
</svg>
