<?xml version="1.0" encoding="iso-8859-1"?>
<!-- Generator: Adobe Illustrator 19.0.0, SVG Export Plug-In . SVG Version: 6.00 Build 0)  -->
<svg version="1.1" id="Layer_1" xmlns="http://www.w3.org/2000/svg" xmlns:xlink="http://www.w3.org/1999/xlink" x="0px" y="0px"
	 viewBox="0 0 392.983 392.983" style="enable-background:new 0 0 392.983 392.983;" xml:space="preserve">
<g>
	<rect x="6.165" y="6" style="fill:#F7B239;" width="380.653" height="344.983"/>
	<polyline style="fill:#F7B239;" points="352.633,350.983 348.823,371.983 346.092,386.982 321.752,386.982 321.752,350.983 
		352.633,350.983 	"/>
	<polyline style="fill:#F7B239;" points="71.241,350.983 71.241,386.982 46.901,386.982 44.171,371.983 40.351,350.983 
		71.241,350.983 	"/>
	<polyline style="fill:#A17A36;" points="71.241,350.983 40.351,350.983 44.171,371.983 71.241,371.983 71.241,350.983 	"/>
	<polyline style="fill:#A17A36;" points="352.633,350.983 321.752,350.983 321.752,371.983 348.823,371.983 352.633,350.983 	"/>
	<path style="fill:#333333;" d="M221.992,92.747h-51c-8.547,0-15.5-6.953-15.5-15.5c0-4.143,1.611-8.036,4.536-10.962
		c2.928-2.926,6.82-4.538,10.964-4.538h4.5c3.313,0,6,2.687,6,6s-2.687,6-6,6h-4.5c-0.938,0-1.818,0.363-2.479,1.023
		c-0.658,0.659-1.021,1.539-1.021,2.477c0,1.93,1.57,3.5,3.5,3.5h51c0.932,0,1.812-0.367,2.478-1.033
		c0.659-0.66,1.022-1.536,1.022-2.467c0-1.93-1.57-3.5-3.5-3.5h-4.5c-3.313,0-6-2.687-6-6s2.687-6,6-6h4.5
		c8.547,0,15.5,6.953,15.5,15.5c0,4.136-1.611,8.025-4.537,10.952C230.022,91.132,226.129,92.747,221.992,92.747z"/>
	<path style="fill:#333333;" d="M360.733,122.994H32.25c-3.313,0-6-2.687-6-6V37.499c0-3.314,2.687-6,6-6h328.483
		c3.313,0,6,2.686,6,6v79.496C366.733,120.308,364.047,122.994,360.733,122.994z M38.25,110.994h316.483V43.499H38.25V110.994z"/>
	<path style="fill:#333333;" d="M221.992,193.991h-51c-8.547,0-15.5-6.953-15.5-15.5c0-4.144,1.611-8.037,4.537-10.962
		c2.927-2.926,6.82-4.538,10.963-4.538h4.5c3.313,0,6,2.687,6,6s-2.687,6-6,6h-4.5c-0.938,0-1.818,0.363-2.479,1.023
		c-0.658,0.659-1.021,1.538-1.021,2.477c0,1.93,1.57,3.5,3.5,3.5h51c0.932,0,1.812-0.367,2.477-1.032
		c0.66-0.66,1.023-1.536,1.023-2.468c0-1.93-1.57-3.5-3.5-3.5h-4.5c-3.313,0-6-2.687-6-6s2.687-6,6-6h4.5
		c8.547,0,15.5,6.953,15.5,15.5c0,4.137-1.611,8.026-4.538,10.953C230.023,192.376,226.13,193.991,221.992,193.991z"/>
	<path style="fill:#333333;" d="M360.733,224.239H32.25c-3.313,0-6-2.686-6-6v-79.496c0-3.314,2.687-6,6-6h328.483
		c3.313,0,6,2.686,6,6v79.496C366.733,221.553,364.047,224.239,360.733,224.239z M38.25,212.239h316.483v-67.496H38.25V212.239z"/>
	<path style="fill:#333333;" d="M221.992,295.236h-51c-8.547,0-15.5-6.953-15.5-15.5c0-4.143,1.611-8.036,4.536-10.962
		c2.929-2.927,6.821-4.538,10.964-4.538h4.5c3.313,0,6,2.687,6,6s-2.687,6-6,6h-4.5c-0.938,0-1.818,0.363-2.479,1.023
		c-0.657,0.658-1.021,1.538-1.021,2.477c0,1.93,1.57,3.5,3.5,3.5h51c0.932,0,1.812-0.367,2.478-1.033
		c0.659-0.66,1.022-1.536,1.022-2.467c0-1.93-1.57-3.5-3.5-3.5h-4.5c-3.313,0-6-2.687-6-6s2.687-6,6-6h4.5
		c8.547,0,15.5,6.953,15.5,15.5c0,4.136-1.611,8.025-4.537,10.952C230.022,293.622,226.129,295.236,221.992,295.236z"/>
	<path style="fill:#333333;" d="M360.733,325.484H32.25c-3.313,0-6-2.686-6-6v-79.496c0-3.314,2.687-6,6-6h328.483
		c3.313,0,6,2.686,6,6v79.496C366.733,322.798,364.047,325.484,360.733,325.484z M38.25,313.484h316.483v-67.496H38.25V313.484z"/>
	<path style="fill:#FFFFFF;" d="M320.533,63.935h-0.016l-52.795-0.137c-3.313-0.009-5.993-2.702-5.984-6.016
		c0.009-3.308,2.693-5.984,6-5.984h0.016l52.795,0.137c3.313,0.009,5.993,2.702,5.984,6.016
		C326.524,61.258,323.84,63.935,320.533,63.935z"/>
	<path style="fill:#FFFFFF;" d="M342.325,63.8c-0.391,0-0.78-0.04-1.17-0.12c-0.38-0.08-0.761-0.19-1.12-0.34
		c-0.36-0.15-0.71-0.34-1.04-0.55c-0.33-0.22-0.63-0.47-0.91-0.75c-1.11-1.12-1.75-2.66-1.75-4.24s0.64-3.13,1.75-4.25
		c1.39-1.39,3.47-2.03,5.42-1.64c0.38,0.08,0.76,0.2,1.12,0.35s0.71,0.33,1.03,0.55c0.33,0.22,0.64,0.47,0.92,0.74
		c1.109,1.12,1.75,2.67,1.75,4.25s-0.641,3.12-1.75,4.24c-0.28,0.28-0.59,0.53-0.92,0.75c-0.32,0.21-0.67,0.4-1.03,0.55
		c-0.36,0.15-0.74,0.26-1.12,0.34C343.115,63.76,342.724,63.8,342.325,63.8z"/>
	<path style="fill:#FFFFFF;" d="M320.533,165.179h-0.016l-52.795-0.137c-3.313-0.009-5.993-2.702-5.984-6.016
		c0.009-3.308,2.693-5.984,6-5.984h0.016l52.795,0.137c3.313,0.009,5.993,2.702,5.984,6.016
		C326.524,162.503,323.84,165.179,320.533,165.179z"/>
	<path style="fill:#FFFFFF;" d="M342.325,165.04c-1.58,0-3.12-0.64-4.24-1.76c-1.11-1.11-1.75-2.66-1.75-4.24
		c0-0.39,0.03-0.78,0.11-1.17c0.08-0.38,0.189-0.76,0.34-1.12c0.149-0.36,0.34-0.71,0.56-1.04c0.21-0.33,0.46-0.63,0.74-0.91
		s0.58-0.53,0.91-0.75c0.33-0.21,0.68-0.4,1.04-0.55c0.359-0.15,0.74-0.26,1.12-0.34c0.779-0.16,1.569-0.16,2.35,0
		c0.38,0.08,0.76,0.19,1.12,0.34s0.71,0.34,1.03,0.55c0.33,0.22,0.64,0.47,0.92,0.75c0.27,0.28,0.529,0.58,0.739,0.91
		c0.221,0.33,0.41,0.68,0.551,1.04c0.149,0.36,0.27,0.74,0.35,1.12c0.07,0.39,0.11,0.78,0.11,1.17c0,1.58-0.641,3.13-1.75,4.24
		c-0.28,0.28-0.59,0.53-0.92,0.75c-0.32,0.22-0.67,0.4-1.03,0.55s-0.74,0.27-1.12,0.34C343.115,165,342.724,165.04,342.325,165.04z"
		/>
	<path style="fill:#FFFFFF;" d="M320.533,266.424h-0.016l-52.795-0.137c-3.313-0.009-5.993-2.702-5.984-6.016
		c0.009-3.308,2.693-5.984,6-5.984h0.016l52.795,0.137c3.313,0.009,5.993,2.702,5.984,6.016
		C326.524,263.748,323.84,266.424,320.533,266.424z"/>
	<path style="fill:#FFFFFF;" d="M342.325,266.29c-0.391,0-0.78-0.04-1.17-0.12c-0.38-0.08-0.761-0.19-1.12-0.34
		c-0.36-0.15-0.71-0.34-1.04-0.56c-0.33-0.21-0.63-0.46-0.91-0.74c-1.11-1.12-1.75-2.66-1.75-4.24c0-0.39,0.03-0.79,0.11-1.18
		c0.08-0.38,0.189-0.76,0.34-1.12c0.149-0.36,0.34-0.71,0.56-1.03c0.21-0.33,0.46-0.64,0.74-0.92c0.28-0.27,0.58-0.52,0.91-0.74
		c0.33-0.22,0.68-0.4,1.04-0.55c0.359-0.15,0.74-0.27,1.12-0.35c0.779-0.15,1.569-0.15,2.35,0c0.38,0.08,0.76,0.2,1.12,0.35
		c0.36,0.15,0.71,0.33,1.03,0.55c0.33,0.22,0.64,0.47,0.92,0.74c0.27,0.28,0.529,0.59,0.739,0.92c0.221,0.32,0.41,0.67,0.551,1.03
		c0.149,0.36,0.27,0.74,0.35,1.12c0.07,0.39,0.11,0.79,0.11,1.18c0,1.58-0.641,3.12-1.75,4.24c-0.28,0.28-0.59,0.53-0.92,0.74
		c-0.32,0.22-0.67,0.41-1.03,0.56s-0.74,0.26-1.12,0.34C343.115,266.25,342.724,266.29,342.325,266.29z"/>
	<path style="fill:#333333;" d="M386.818,0H6.165c-3.313,0-6,2.686-6,6v344.982c0,3.314,2.687,6,6,6h29.179l5.654,31.075
		c0.52,2.853,3.004,4.926,5.903,4.926h24.34c3.313,0,6-2.687,6-6v-30h238.512v30c0,3.313,2.687,6,6,6h24.34
		c2.9,0,5.385-2.074,5.903-4.928l5.645-31.073h29.177c3.313,0,6-2.686,6-6V6C392.818,2.686,390.132,0,386.818,0z M65.241,380.983
		H51.908l-4.366-24h17.699V380.983z M341.085,380.983h-13.332v-24h17.691L341.085,380.983z M380.818,344.982H12.165V12h368.653
		L380.818,344.982L380.818,344.982z"/>
</g>
<g>
</g>
<g>
</g>
<g>
</g>
<g>
</g>
<g>
</g>
<g>
</g>
<g>
</g>
<g>
</g>
<g>
</g>
<g>
</g>
<g>
</g>
<g>
</g>
<g>
</g>
<g>
</g>
<g>
</g>
</svg>
